<svg xmlns="http://www.w3.org/2000/svg" width="400" height="400" fill="none"><path fill="#020202" d="M177 46h-14v4h14zm-14 4h-3v3h3z"/><path fill="#A59B8F" d="M170 50h-7v3h7z"/><path fill="#020202" d="M180 50h-3v3h3zm-20 3h-3v14h3z"/><path fill="#A59B8F" d="M163 53h-3v14h3z"/><path fill="#020202" d="M183 53h-3v17h3zm-20 14h-3v3h3z"/><path fill="#A59B8F" d="M167 67h-4v3h4z"/><path fill="#36505B" fill-rule="evenodd" d="M177 50h-7v3h3v4h4v10h-4v10h4v-7h3V53h-3z" clip-rule="evenodd"/><path fill="#020202" d="M180 70h-3v27h3z"/><path fill="#36505B" d="M177 83h-4v14h4z"/><path fill="#020202" fill-rule="evenodd" d="M163 70h4v30h-10v-3h6z" clip-rule="evenodd"/><path fill="#020202" d="M183 97h-6v3h6zm-26 3h-7v3h7z"/><path fill="#36505B" d="M160 100h-3v3h3z"/><path fill="#A59B8F" fill-rule="evenodd" d="M167 70h3v33h-10v-3h7z" clip-rule="evenodd"/><path fill="#36505B" d="M177 100h-4v3h4z"/><path fill="#A59B8F" d="M180 100h-3v3h3z"/><path fill="#36505B" d="M183 100h-3v3h3z"/><path fill="#020202" d="M190 100h-7v3h7z"/><path fill="#36505B" d="M153 103h-3v4h3z"/><path fill="#A59B8F" d="M157 103h-4v4h4zm30 0h-4v4h4z"/><path fill="#36505B" d="M190 103h-3v4h3zm-40 4h-3v3h3zm43 0h-3v3h3z"/><path fill="#A59B8F" d="M147 110h-4v3h4zm50 0h-4v3h4zm-54 3h-3v4h3zm57 0h-3v4h3z"/><path fill="#020202" fill-rule="evenodd" d="M150 103h-7v4h-3v3h-3v3h-4v7h4v-3h3v-4h3v-3h4v-3h3z" clip-rule="evenodd"/><path fill="#A59B8F" d="M203 117h-3v3h3z"/><path fill="#020202" fill-rule="evenodd" d="M197 103h-7v4h3v3h4v3h3v4h3v3h4v-7h-4v-3h-3v-3h-3z" clip-rule="evenodd"/><path fill="#020202" d="M133 120h-3v7h3z"/><path fill="#A59B8F" d="M190 120h-33v3h33z"/><path fill="#020202" d="M210 120h-3v7h3z"/><path fill="#A59B8F" fill-rule="evenodd" d="M140 117h-3v3h-4v7h4v-4h6v-3h-3z" clip-rule="evenodd"/><path fill="#020202" d="M143 123h-6v4h6z"/><path fill="#A59B8F" d="M147 123h-4v4h4zm10 0h-4v4h4z"/><path fill="#020202" d="M190 123h-33v4h33z"/><path fill="#36505B" d="M193 123h-3v4h3z"/><path fill="#A59B8F" d="M197 123h-4v4h4zm-64 4h-3v3h3z"/><path fill="#EEEEC2" d="M143 127h-6v3h6z"/><path fill="#020202" d="M147 127h-4v3h4z"/><path fill="#A59B8F" d="M150 127h-3v3h3z"/><path fill="#36505B" d="M153 127h-3v3h3z"/><path fill="#020202" d="M157 127h-4v3h4zm36 0h-3v3h3z"/><path fill="#36505B" d="M197 127h-4v3h4z"/><path fill="#A59B8F" d="M200 127h-3v3h3z"/><path fill="#EEEEC2" fill-rule="evenodd" d="M163 53h10v4h4v10h-4v10h4v6h-4v14h4v3h-4v3h10v4h7v3h3v3h4v4h3v3h3v37h-3v-30h-3v-4h-7v-3h-33v3h-4v4h-6v-4h-4v-3h-3v-3h3v-4h4v-3h3v-3h7v-4h13V70h-3v-3h-4z" clip-rule="evenodd"/><path fill="#020202" d="M213 127h-6v3h6z"/><path fill="#020202" fill-rule="evenodd" d="M130 127h-3v6h13v-3h-3v-3h-4v3h-3z" clip-rule="evenodd"/><path fill="#EEEEC2" d="M143 130h-3v3h3z"/><path fill="#A59B8F" d="M147 130h-4v27h4z"/><path fill="#36505B" d="M150 130h-3v3h3z"/><path fill="#020202" d="M153 130h-3v3h3zm34 0h-27v3h27z"/><path fill="#36505B" d="M190 130h-3v3h3z"/><path fill="#A59B8F" d="M193 130h-3v3h3z"/><path fill="#020202" d="M197 130h-4v3h4z"/><path fill="#36505B" d="M200 130h-3v3h3z"/><path fill="#020202" d="M210 130h-3v13h3z"/><path fill="#EEEEC2" d="M213 130h-3v13h3z"/><path fill="#020202" d="M217 130h-4v23h4zm-90 3h-4v4h4zm16 0h-3v20h3zm7 0h-3v24h3zm10 0h-3v4h3z"/><path fill="#4D0C4C" d="M163 133h-3v4h3z"/><path fill="#020202" d="M190 133h-3v4h3z"/><path fill="#36505B" d="M193 133h-3v4h3z"/><path fill="#A59B8F" d="M197 133h-4v24h4z"/><path fill="#020202" d="M200 133h-3v24h3zm-77 4h-3v13h3zm14 0h-4v10h4zm20 0h-4v16h4z"/><path fill="#4D0C4C" d="M160 137h-3v3h3z"/><path fill="#020202" d="M193 137h-3v16h3z"/><path fill="#EEEEC2" fill-rule="evenodd" d="M127 133h13v14h-3v-10h-7v10h-3v-4h-4v-6h4z" clip-rule="evenodd"/><path fill="#36505B" d="M213 143h-3v10h3z"/><path fill="#020202" d="M133 147h-3v3h3z"/><path fill="#EEEEC2" d="M137 147h-4v3h4z"/><path fill="#E33596" d="M163 147h-3v3h3z"/><path fill="#EEEEC2" fill-rule="evenodd" d="M167 133h-4v4h-3v3h-3v3h3v4h3v3h4v-3h3v-4h3v-3h-3v-3h-3z" clip-rule="evenodd"/><path fill="#020202" d="M127 150h-4v3h4z"/><path fill="#36505B" fill-rule="evenodd" d="M133 137h-3v10h-3v-4h-4v7h4v3h13v-6h-3v3h-7v-3h3z" clip-rule="evenodd"/><path fill="#E33596" fill-rule="evenodd" d="M177 137h-7v3h3v3h-3v4h-3v3h-4v3h17v-3h3v-7h-3v-3h-3z" clip-rule="evenodd"/><path fill="#A59B8F" fill-rule="evenodd" d="M207 120h-4v37h4v-7h3v-7h-3z" clip-rule="evenodd"/><path fill="#EEEEC2" d="M143 153h-3v4h3z"/><path fill="#020202" d="M160 153h-3v4h3z"/><path fill="#4D0C4C" fill-rule="evenodd" d="M167 133h20v4h3v16h-3v4h-27v-4h-3v-10h3v7h3v3h17v-3h3v-7h-3v-3h-3v-3h-10z" clip-rule="evenodd"/><path fill="#020202" d="M190 153h-3v4h3z"/><path fill="#36505B" d="M193 153h-3v4h3z"/><path fill="#EEEEC2" d="M143 157h-10v3h10z"/><path fill="#020202" d="M147 157h-4v3h4zm6 0h-3v3h3zm34 0h-27v3h27z"/><path fill="#36505B" d="M190 157h-3v3h3z"/><path fill="#A59B8F" d="M193 157h-3v3h3z"/><path fill="#020202" d="M200 157h-7v3h7z"/><path fill="#A59B8F" d="M203 157h-3v6h3z"/><path fill="#020202" d="M157 160h-4v3h4z"/><path fill="#A59B8F" fill-rule="evenodd" d="M190 127h-33v3h-4v3h-3v24h3v3h4v3h33v-3h-30v-3h-3v-4h-4v-16h4v-4h3v-3h30z" clip-rule="evenodd"/><path fill="#020202" d="M193 160h-3v3h3z"/><path fill="#020202" fill-rule="evenodd" d="M127 153h13v4h-7v3h10v3h-6v4h-4v-4h-3v-6h-3z" clip-rule="evenodd"/><path fill="#36505B" d="M140 163h-3v4h3z"/><path fill="#A59B8F" d="M143 163h-3v4h3z"/><path fill="#020202" d="M190 163h-33v4h33z"/><path fill="#EEEEC2" fill-rule="evenodd" d="M193 160h7v3h-3v4h-7v-4h3z" clip-rule="evenodd"/><path fill="#A59B8F" d="M200 163h-3v4h3z"/><path fill="#36505B" d="M147 167h-4v3h4z"/><path fill="#020202" d="M153 167h-3v3h3z"/><path fill="#EEEEC2" fill-rule="evenodd" d="M150 157h-3v3h-4v7h4v3h3v-3h3v3h34v-3h-30v-4h-4v-3h-3z" clip-rule="evenodd"/><path fill="#36505B" d="M190 167h-3v3h3z"/><path fill="#020202" d="M193 167h-3v3h3z"/><path fill="#A59B8F" d="M197 167h-4v3h4zm-47 3h-3v3h3z"/><path fill="#EEEEC2" d="M153 170h-3v3h3z"/><path fill="#020202" d="M157 170h-4v3h4z"/><path fill="#36505B" d="M187 170h-30v3h30z"/><path fill="#020202" d="M190 170h-3v3h3z"/><path fill="#A59B8F" d="M193 170h-3v3h3z"/><path fill="#020202" fill-rule="evenodd" d="M143 167h-6v3h3v3h3v4h7v-4h-3v-3h-4z" clip-rule="evenodd"/><path fill="#A59B8F" d="M157 173h-7v4h7z"/><path fill="#020202" d="M187 173h-30v4h30z"/><path fill="#A59B8F" d="M190 173h-3v4h3zm-3 4h-30v3h30z"/><path fill="#020202" fill-rule="evenodd" d="M210 150h-3v7h-4v6h-3v4h-3v3h-4v3h-3v4h-3v3h-30v-3h-7v3h3v4h37v-4h3v-3h4v-4h3v-3h3v-3h4v-7h3v-3h3v-4h-3z" clip-rule="evenodd"/></svg>