<svg xmlns="http://www.w3.org/2000/svg" width="400" height="400" fill="none"><path fill="#36505B" fill-rule="evenodd" d="M180 287h-10v3h7v3h3z" clip-rule="evenodd"/><path fill="#36505B" d="M180 293h3v4h-3zm3 4h4v10h-4zm-3 10h3v3h-3zm-3 3h3v3h-3zm-4 3h4v7h-4z"/><path fill="#36505B" fill-rule="evenodd" d="M163 340h-3v7h20v-4h-17z" clip-rule="evenodd"/><path fill="#A59B8F" d="M173 340h4v3h-4zm7-43h3v10h-3zm-3-4h3v4h-3zm0 14h3v3h-3zm-4 3h4v3h-4zm-3 17h3v3h-3z"/><path fill="#A59B8F" fill-rule="evenodd" d="M177 290h-7v17h3v-14h4z" clip-rule="evenodd"/><path fill="#EEEEC2" fill-rule="evenodd" d="M173 293h4v4h3v10h-3v6h-4v14h-3v13h3v3h-10v-9h4v-14h3v-13h3z" clip-rule="evenodd"/><path fill="#A59B8F" d="M163 330h4v4h-4zm41-7h3v4h-3zm0 14h3v3h-3zm3 3h3v3h-3z"/><path fill="#36505B" fill-rule="evenodd" d="M197 340h-4v7h20v-4h-16z" clip-rule="evenodd"/><path fill="#A59B8F" d="M197 330h3v13h-3z"/><path fill="#EEEEC2" fill-rule="evenodd" d="M200 323h4v17h3v3h-7z" clip-rule="evenodd"/><path fill="#36505B" fill-rule="evenodd" d="M203 317h-3v6h7v-3h-4z" clip-rule="evenodd"/></svg>