<svg xmlns="http://www.w3.org/2000/svg" width="400" height="400" fill="none"><path fill="#A59B8F" d="M180 293h-3v4h3z"/><path fill="#020202" d="M167 287h-4v23h4z"/><path fill="#36505B" d="M177 287h-10v3h10z"/><path fill="#020202" d="M180 287h-3v3h3z"/><path fill="#36505B" d="M180 290h-3v3h3z"/><path fill="#020202" d="M183 290h-3v3h3z"/><path fill="#A59B8F" fill-rule="evenodd" d="M167 290h10v3h-7v20h-3z" clip-rule="evenodd"/><path fill="#36505B" d="M183 293h-3v4h3z"/><path fill="#020202" d="M187 293h-4v4h4z"/><path fill="#A59B8F" d="M183 297h-3v13h3z"/><path fill="#36505B" d="M187 297h-4v13h4z"/><path fill="#020202" d="M190 297h-3v13h3zm-27 13h-3v3h3z"/><path fill="#36505B" d="M167 310h-4v3h4z"/><path fill="#A59B8F" d="M180 310h-3v3h3z"/><path fill="#36505B" d="M183 310h-3v3h3z"/><path fill="#020202" d="M187 310h-4v3h4zm-27 3h-3v4h3z"/><path fill="#36505B" d="M163 313h-3v4h3z"/><path fill="#A59B8F" d="M167 313h-4v4h4zm10 0h-4v7h4z"/><path fill="#36505B" d="M180 313h-3v7h3z"/><path fill="#020202" d="M183 313h-3v7h3zm14 0h-7v4h7zm-40 4h-4v30h4z"/><path fill="#A59B8F" d="M163 317h-3v23h3z"/><path fill="#020202" d="M193 317h-3v13h3z"/><path fill="#36505B" d="M203 317h-10v3h10z"/><path fill="#A59B8F" d="M173 320h-3v7h3z"/><path fill="#36505B" d="M177 320h-4v7h4z"/><path fill="#020202" d="M180 320h-3v7h3z"/><path fill="#A59B8F" fill-rule="evenodd" d="M193 320h10v3h-6v20h-4z" clip-rule="evenodd"/><path fill="#A59B8F" d="M210 323h-3v7h3z"/><path fill="#36505B" fill-rule="evenodd" d="M203 320h10v10h-3v-7h-7z" clip-rule="evenodd"/><path fill="#020202" d="M217 320h-4v10h4z"/><path fill="#36505B" d="M173 327h-3v10h3z"/><path fill="#A59B8F" d="M207 330h-4v7h4z"/><path fill="#36505B" d="M210 330h-3v7h3z"/><path fill="#020202" fill-rule="evenodd" d="M173 327h4v6h6v4h-10zm37 3h3v3h4v4h-7z" clip-rule="evenodd"/><path fill="#EEEEC2" fill-rule="evenodd" d="M177 293h-7v20h-3v4h-4v23h10v-3h-3v-17h3v-7h4v-3h3v-13h-3z" clip-rule="evenodd"/><path fill="#36505B" d="M183 337h-10v3h10z"/><path fill="#A59B8F" d="M210 337h-3v3h3z"/><path fill="#36505B" d="M217 337h-7v3h7z"/><path fill="#020202" d="M223 337h-6v3h6z"/><path fill="#A59B8F" d="M183 340h-20v3h20z"/><path fill="#020202" fill-rule="evenodd" d="M190 330h-3v7h-4v3h4v7h3z" clip-rule="evenodd"/><path fill="#EEEEC2" fill-rule="evenodd" d="M197 323h10v7h-4v7h4v3h3v3h-13z" clip-rule="evenodd"/><path fill="#A59B8F" d="M217 340h-7v3h7z"/><path fill="#020202" d="M227 340h-4v7h4z"/><path fill="#36505B" fill-rule="evenodd" d="M157 317h3v23h3v3h20v-3h4v7h-30zm36 13h-3v17h33v-7h-6v3h-24z" clip-rule="evenodd"/><path fill="#020202" d="M160 347h-3v3h3zm33 0h-3v3h3zm-33 0h27v3h-27zm33 0h31v3h-31zm4-34h6v4h-6zm6 4h10v3h-10z"/></svg>