<svg xmlns="http://www.w3.org/2000/svg" width="400" height="400" fill="none"><path fill="#000" d="M244 100h-4v4h4z"/><path fill="#BB954D" d="M247 100h-3v4h3z"/><path fill="#211806" fill-rule="evenodd" d="M244 97h6v10h-3v-7h-3z" clip-rule="evenodd"/><path fill="#463410" fill-rule="evenodd" d="M237 90h-3v17h3v-3h3v-7h-3z" clip-rule="evenodd"/><path fill="#000" d="M240 104h-3v3h3z"/><path fill="#A17F3F" d="M247 104h-3v3h3zm3 3h-3v3h3z"/><path fill="#000" fill-rule="evenodd" d="M250 107h4v17h-4z" clip-rule="evenodd"/><path fill="#211806" fill-rule="evenodd" d="M230 94h4v13h6v3h-3v4h-3v6h-4v-13h-3V97h3z" clip-rule="evenodd"/><path fill="#37280A" d="M237 114h-3v13h3z"/><path fill="#816021" fill-rule="evenodd" d="M237 110h7v4h-4v3h-3z" clip-rule="evenodd"/><path fill="#37280A" fill-rule="evenodd" d="M240 104h4v3h3v3h3v14h-3v-10h-3v-4h-4z" clip-rule="evenodd"/><path fill="#000" d="M230 117h-3v3h3z"/><path fill="#BB954D" d="M240 117h-3v7h3z"/><path fill="#000" fill-rule="evenodd" d="M240 114h4v3h3v3h-7z" clip-rule="evenodd"/><path fill="#816021" d="M247 120h-7v4h7z"/><path fill="#BB954D" d="M230 124h-3v3h3z"/><path fill="#816021" fill-rule="evenodd" d="M227 120h7v7h-4v-3h-3z" clip-rule="evenodd"/><path fill="#5A4112" d="M247 124h-3v3h3z"/><path fill="#000" d="M250 124h-3v10h3z"/><path fill="#A17F3F" d="M234 127h-4v3h4z"/><path fill="#5A4112" d="M237 127h-3v3h3z"/><path fill="#37280A" d="M240 127h-3v3h3z"/><path fill="#A17F3F" fill-rule="evenodd" d="M237 124h7v6h-4v-3h-3z" clip-rule="evenodd"/><path fill="#A17F3F" d="M237 130h-3v4h3z"/><path fill="#5A4112" d="M240 130h-3v4h3z"/><path fill="#37280A" fill-rule="evenodd" d="M230 127h-3v7h3v3h-3v3h10v-3h7v-3h3v-7h-3v3h-4v4h-6v-4h-4z" clip-rule="evenodd"/><path fill="#000" fill-rule="evenodd" d="M244 134h3v6h-10v-3h7z" clip-rule="evenodd"/><path fill="#BB954D" d="M230 140h-3v4h3z"/><path fill="#A17F3F" d="M234 140h-4v4h4z"/><path fill="#000" d="M237 140h-3v7h3z"/><path fill="#634B1C" fill-rule="evenodd" d="M224 134h6v3h-3v10h-3v7h-4v-10h4z" clip-rule="evenodd"/><path fill="#37280A" fill-rule="evenodd" d="M227 144h7v3h-4v3h-6v-3h3z" clip-rule="evenodd"/><path fill="#000" d="M234 147h-4v10h4z"/><path fill="#816021" d="M227 150h-3v4h3z"/><path fill="#5A4112" d="M230 150h-3v4h3z"/><path fill="#37280A" d="M230 154h-10v3h10z"/><path fill="#BB954D" d="M224 157h-4v3h4z"/><path fill="#A17F3F" d="M227 157h-3v3h3z"/><path fill="#000" d="M230 157h-3v10h3z"/><path fill="#816021" d="M224 160h-4v4h4z"/><path fill="#37280A" fill-rule="evenodd" d="M224 160h3v7h-10v-3h7z" clip-rule="evenodd"/><path fill="#BB954D" d="M220 167h-3v3h3z"/><path fill="#5A4112" d="M224 167h-4v3h4z"/><path fill="#000" d="M227 167h-3v10h3z"/><path fill="#816021" d="M220 170h-3v4h3z"/><path fill="#37280A" fill-rule="evenodd" d="M220 170h4v7h-10v-3h6z" clip-rule="evenodd"/><path fill="#BB954D" d="M217 177h-3v3h3z"/><path fill="#A17F3F" d="M220 177h-3v3h3z"/><path fill="#000" d="M224 177h-4v10h4z"/><path fill="#816021" d="M217 180h-3v4h3z"/><path fill="#5A4112" d="M220 180h-3v4h3z"/><path fill="#37280A" d="M220 184h-10v3h10z"/><path fill="#BB954D" d="M214 187h-4v3h4z"/><path fill="#A17F3F" d="M217 187h-3v3h3z"/><path fill="#000" d="M220 187h-3v10h3z"/><path fill="#816021" d="M214 190h-4v4h4z"/><path fill="#5A4112" d="M217 190h-3v4h3z"/><path fill="#37280A" d="M217 194h-10v3h10z"/><path fill="#BB954D" d="M210 197h-3v3h3z"/><path fill="#A17F3F" d="M214 197h-4v3h4z"/><path fill="#000" d="M217 197h-3v10h3z"/><path fill="#816021" d="M210 200h-3v4h3z"/><path fill="#5A4112" d="M214 200h-4v4h4z"/><path fill="#37280A" d="M214 204h-10v3h10z"/><path fill="#BB954D" d="M207 207h-3v3h3z"/><path fill="#A17F3F" d="M210 207h-3v3h3z"/><path fill="#000" d="M214 207h-4v10h4z"/><path fill="#816021" d="M207 210h-4v4h4z"/><path fill="#5A4112" d="M210 210h-3v4h3z"/><path fill="#000" d="M203 214h-3v13h3z"/><path fill="#37280A" d="M210 214h-7v3h7z"/><path fill="#5A4112" d="M207 217h-4v10h4z"/><path fill="#000" d="M210 217h-3v20h3z"/></svg>