<svg xmlns="http://www.w3.org/2000/svg" width="400" height="400" fill="none"><path fill="#000" d="M194 121h-37v3h37zm-40 6h-4v3h4z"/><path fill="#FAFAFA" d="M157 127h-3v3h3z"/><path fill="#000" d="M157 124h-3v3h3z"/><path fill="#DDD6D6" d="M197 124h-40v3h40z"/><path fill="#000" d="M150 130h-3v7h3z"/><path fill="#FAFAFA" d="M154 130h-4v3h4z"/><path fill="#DDD6D6" d="M157 130h-3v3h3zm40 0h-3v3h3z"/><path fill="#000" d="M201 130h-4v3h4z"/><path fill="#DDD6D6" d="M140 134h-3v3h3zm14-1h-4v4h4z"/><path fill="#000" d="M205 133h-4v4h4zm-68 7h-4v7h4z"/><path fill="#DDD6D6" d="M147 140h-3v7h3z"/><path fill="#000" d="M205 137h-4v16h4z"/><path fill="#FAFAFA" d="M140 154h-3v3h3zm-3 3h-4v3h4z"/><path fill="#000" fill-rule="evenodd" d="M147 150h3v3h-3zm7 6h-4v-3h4zm0 0h9v4h-9zm26-3h6v3h-6z" clip-rule="evenodd"/><path fill="#FAFAFA" d="M133 160h-4v14h4zm-4 14h-3v36h3zm0 36h-3v10h3zm4 10h-4v4h4zm34 4h-3v3h3zm-3 3h-4v3h4zm6 0h-3v3h3zm-10 3h-3v20h3zm14 0h-4v7h4z"/><path fill="#DDD6D6" d="M154 234h-4v3h4zm3 3h-3v3h3z"/><path fill="#FAFAFA" d="M170 237h-3v3h3z"/><path fill="#DDD6D6" d="M167 240h-7v4h7z"/><path fill="#FAFAFA" d="M164 250h-4v4h4zm3 4h-3v3h3z"/><path fill="#000" d="M137 137h17v3h-17zm0 10h17v3h-17z"/><path fill="#FAFAFA" d="M139 140h3v7h-3zm-2 2h2v3h-2zm5 0h2v3h-2z"/><path fill="#D9D9D9" d="M150 150h7v3h-7zm4 3h9v3h-9z"/><path fill="#000" d="M151 140h3v7h-3zm3-7h3v4h-3zm3-6h44v3h-44zm6 26h10v3h-10zm10-3h7v3h-7z"/><path fill="#2D2190" d="M157 130h40v4h-40zm-3 7h3v13h-3z"/><path fill="#000" d="M157 150h3v3h-3z"/><path fill="#2D2190" d="M157 143h3v7h-3zm3 7h13v3h-13zm13-4h7v4h-7zm7 4h6v3h-6z"/><path fill="#000" d="M186 156h11v3h-11z"/><path fill="#D9D9D9" d="M194 150h3v3h-3z"/><path fill="#2D2190" d="M197 133h4v14h-4zm-3 1h3v6h-3z"/><path fill="#742DB5" d="M160 134h4v3h-4zm0 13h4v3h-4z"/><path fill="#A287D5" d="M180 146h11v4h-11z"/><path fill="#742DB5" d="M186 150h8v3h-8zm8-10h3v10h-3zm-26-6h26v3h-26z"/><path fill="#A287D5" d="M160 140h4v7h-4zm4 6h9v4h-9z"/><path fill="#742DB5" d="M191 146h3v4h-3z"/><path fill="#A287D5" d="M164 137h30v3h-30z"/><path fill="#B9B3E3" d="M164 140h27v3h-27z"/><path fill="#D9D9D9" d="M142 140h2v2h-2zm-5 0h2v2h-2zm5 5h2v2h-2zm-5 0h2v2h-2z"/><path fill="#919191" d="M147 140h4v7h-4z"/><path fill="#2D2190" d="M186 153h11v3h-11z"/><path fill="#D9D9D9" d="M157 140h3v3h-3zm3-3h4v3h-4zm4-3h4v3h-4z"/><path fill="#000" d="M194 124h3v3h-3z"/><path fill="#2D2190" d="M157 134h3v6h-3z"/><path fill="#A287D5" d="M164 143h3v3h-3zm27-3h3v6h-3z"/><path fill="#B9B3E3" d="M167 143h21v3h-21z"/><path fill="#A287D5" d="M188 143h3v3h-3z"/><path fill="#000" d="M197 153h4v3h-4z"/><path fill="#D9D9D9" d="M197 147h4v3h-4z"/><path fill="#2D2190" d="M197 150h4v3h-4z"/></svg>