<svg xmlns="http://www.w3.org/2000/svg" width="400" height="400" fill="none"><path fill="#000" d="M230 237h-10v3h10zm-10 3h-6v4h6zm14 0h-4v14h4zm-20 4h-7v3h7zm-7 3h-13v3h13zm13 0h-3v3h3zm-26 3h-10v4h10zm23 0h-3v4h3zm7 0h-4v4h4zm-40 4h-10v3h10zm36 0h-3v3h3zm10 0h-3v16h3zm-56 3h-4v3h4zm-20 3h-14v4h14z"/><path fill="#674545" d="M174 260h-4v4h4z"/><path fill="#000" d="M177 260h-3v7h3zm-37 4h-3v6h3z"/><path fill="#674545" d="M154 264h-14v3h14z"/><path fill="#836868" d="M174 264h-4v3h4zm-20 3h-14v3h14z"/><path fill="#000" d="M174 267h-7v3h7zm-17 3h-17v4h17zm17 0h-4v7h4z"/><path fill="#EBEBEB" fill-rule="evenodd" d="M224 260h3v10h-7v4h-6v-4h3v-3h3v-3h4z" clip-rule="evenodd"/><path fill="#000" d="M227 270h-7v4h7zm-7 4h-6v3h6zm-43 3h-4v10h4z"/><path fill="#B9B9B9" fill-rule="evenodd" d="M230 247h-6v7h-4v3h-10v3h-6v4h-7v3h-7v3h-3v4h-3v6h10v-3h6v-3h14v-4h3v-3h3v-3h4v-4h3v-6h3z" clip-rule="evenodd"/><path fill="#000" d="M214 277h-7v3h7z"/><path fill="#EBEBEB" fill-rule="evenodd" d="M214 274h-14v3h-6v3h-10v4h13v-4h10v-3h7z" clip-rule="evenodd"/><path fill="#000" d="M207 280h-10v4h10z"/><path fill="#9A9A9A" fill-rule="evenodd" d="M220 240h10v7h-6v3h-4v-3h-3v3h-3v4h3v3h-7v3h-6v4h-7v3h-7v3h-3v4h-3v10h-4v3h-3v-10h-3v-10h3v-7h-3v-3h10v-3h10v-4h13v-3h7v-3h6z" clip-rule="evenodd"/><path fill="#B9B9B9" d="M184 284h-4v3h4z"/><path fill="#000" d="M197 284h-13v3h13zm-13 3h-7v3h7z"/></svg>