<svg xmlns="http://www.w3.org/2000/svg" width="400" height="400" fill="none"><path fill="#000" d="M197 313h-3v17h3z"/><g class="b3"><path d="M170 290h10v24h-3v6h-3v4h-10v-7h3v-3h3zm27 27h6v3h4v7h-10z" clip-rule="evenodd"/><path d="M180 293h3v17h-3zm3 4h4v6h-4zm-13-14h3v7h-3zm3 4h7v3h-7zm7 3h3v3h-3zm3 3h4v4h-4zm4 4h3v6h-3zm-4 6h4v4h-4z"/></g><path fill="#000" d="M210 320h-3v17h3z"/><path fill="#000" fill-rule="evenodd" d="M180 310h3v4h-3zm-3 10v-6h3v6zm0 0v20h-3v-20zm-13-6h3v3h-3zm-4 16h4v-13h-4zm0 0v10h-3v-10z" clip-rule="evenodd"/><path fill="#fff" fill-rule="evenodd" d="M164 324h10v16h-14v-10h4zm43 3h-10v3h-3v10h16v-3h-3z" clip-rule="evenodd"/><path fill="#000" d="M214 337h-4v3h4zm-57 3h-3v7h3zm23 0h-3v3h3zm40 0h-6v4h6zm-36 3h-4v4h4zm40 1h-4v3h4zm-64 3h-3v3h3z"/><path fill="#D70000" fill-rule="evenodd" d="M177 340h-20v7h3v3h24v-3h-4v-4h-3z" clip-rule="evenodd"/><path fill="#000" d="M187 347h-3v3h3z"/><path fill="#D70000" fill-rule="evenodd" d="M214 340h-20v10h30v-3h-4v-3h-6z" clip-rule="evenodd"/><path fill="#000" d="M227 347h-3v3h3zm-43 3h-24v4h24z"/><path fill="#000" fill-rule="evenodd" d="M190 330h4v20h30v4h-34z" clip-rule="evenodd"/></svg>