<svg xmlns="http://www.w3.org/2000/svg" width="400" height="400" fill="none"><path fill="#000" d="M167 94h-10v3h10zm3 3h-3v3h3zm7 0h-4v3h4z"/><path fill="#5F2F09" d="M184 97h-7v10h7z"/><path fill="#000" d="M177 100h-10v4h10zm-50 10h-3v4h3z"/><path fill="#5F2F09" fill-rule="evenodd" d="M150 100h14v14h-10v-4h-4z" clip-rule="evenodd"/><path fill="#A55B1E" fill-rule="evenodd" d="M157 97h10v7h10v3h7v-7h6v10h4v4h-30v-14h-7z" clip-rule="evenodd"/><path fill="#000" d="M124 114h-4v16h4z"/><path fill="#9B6BBD" d="M190 117h-23v7h23z"/><path fill="#7F569B" fill-rule="evenodd" d="M157 117h10v7h-7v-4h-3z" clip-rule="evenodd"/><path fill="#5F2F09" fill-rule="evenodd" d="M207 117h-10v13h17v-6h-4v-4h-3z" clip-rule="evenodd"/><path fill="#000" d="M127 130h-3v4h3z"/><path fill="#5F2F09" fill-rule="evenodd" d="M144 110h-17v4h-3v16h3v4h37v-4h-7v-6h-3v-7h-4v-3h-6z" clip-rule="evenodd"/><path fill="#A55B1E" fill-rule="evenodd" d="M157 127h37v3h16v4h-46v-4h-7z" clip-rule="evenodd"/><path fill="#000" fill-rule="evenodd" d="M187 94h-10v3h7v3h6v10h4v4h-40v-4h-4v-10h7v-3h-10v10h-20v3h17v4h6v3h4v7h3v3h37v3h3v-13h10v3h3v4h4v6h-4v4h-83v3h87v-3h3v-14h-3v-3h-4v-3h-13v-7h-3V97h-7zm3 30h-30v-4h-3v-3h33z" clip-rule="evenodd"/></svg>