<svg xmlns="http://www.w3.org/2000/svg" width="400" height="400" fill="none"><path d="M170 283h3v4h7v3h3v3h4v4h3v6h-10v4h-3v3h-4v7h-3zm-3 47v-13h3v13zm-4 10h4v-10h-4zm0 0v7h-3v-7zm37-23h3v3h4v3h-4v10h-3v14h-7v-7h4v-10h3z" class="b3" clip-rule="evenodd"/><g class="b2"><path d="M180 303h7v4h-4v3h-3v3h-3v4h-4v-7h4v-3h3zm-7 14v10h-3v-10zm-6 13h3v13h-3v4h-4v-7h4z" clip-rule="evenodd"/><path d="M200 333h3v10h-3zm7 10h3v4h-3z"/></g><path d="M173 317h4v3h-4zm-3 10h3v3h-3zm0 10h3v3h-3zm3 6h7v4h-7zm30-6h4v3h-4zm7 6h3v4h-3z" class="b1"/><path fill="#A386D5" d="M150 350h33v3h-33z"/><path fill="#000" fill-rule="evenodd" d="M203 340h7v3h-3v4h13v3h-30v-3h10v-4h3z" clip-rule="evenodd"/><path fill="#A386D5" d="M193 350h27v3h-27z"/><path fill="#000" fill-rule="evenodd" d="M177 340h-7v3h-3v4h-20v6h3v3h33v-3h4v-3h-4v-3h-10v-4h4zm6 10v3h-33v-3z" clip-rule="evenodd"/><path fill="#000" d="M220 350h4v3h-4zm-30 0h3v3h-3zm3 3h27v3h-27z"/></svg>