<svg xmlns="http://www.w3.org/2000/svg" width="400" height="400" fill="none"><path fill="#000" d="M147 184h-10v3h10z"/><path fill="#FFB0B0" d="M147 187h-10v3h10z"/><path fill="#000" d="M150 187h-3v3h3zm47 0h-3v3h3z"/><path fill="#FFB0B0" d="M150 190h-3v4h3z"/><path fill="#000" d="M154 190h-4v4h4zm40 0h-4v4h4z"/><path fill="#FFB0B0" d="M197 190h-3v4h3z"/><path fill="#000" d="M144 194h-7v3h7z"/><path fill="#FFB0B0" d="M154 194h-4v3h4z"/><path fill="#000" d="M157 194h-3v3h3zm33 0h-3v3h3z"/><path fill="#FFB0B0" d="M194 194h-4v3h4z"/><path fill="#D61D32" d="M140 197h-3v3h3z"/><path fill="#000" d="M147 197h-3v3h3z"/><path fill="#FFB0B0" d="M157 197h-3v3h3z"/><path fill="#000" d="M160 197h-3v3h3zm27 0h-3v3h3z"/><path fill="#FFB0B0" d="M190 197h-3v3h3z"/><path fill="#000" d="M133 200h-3v14h3zm17 0h-3v4h3z"/><path fill="#FFB0B0" d="M160 200h-3v4h3z"/><path fill="#000" d="M164 200h-4v4h4zm20 0h-4v4h4z"/><path fill="#FFB0B0" d="M187 200h-3v4h3z"/><path fill="#000" d="M197 200h-3v4h3zm-43 4h-4v3h4z"/><path fill="#FFB0B0" d="M164 204h-4v3h4z"/><path fill="#000" d="M167 204h-3v3h3zm13 0h-3v3h3z"/><path fill="#FFB0B0" d="M184 204h-4v3h4z"/><path fill="#000" d="M194 204h-4v3h4z"/><path fill="#D61D32" d="M154 207h-4v3h4z"/><path fill="#000" d="M157 207h-3v3h3z"/><path fill="#FFB0B0" d="M167 207h-3v3h3z"/><path fill="#000" d="M170 207h-3v3h3zm7 0h-3v3h3z"/><path fill="#FFB0B0" d="M180 207h-3v3h3z"/><path fill="#000" d="M190 207h-3v3h3z"/><path fill="#F42941" d="M154 210h-4v4h4z"/><path fill="#D61D32" d="M157 210h-3v4h3z"/><path fill="#000" d="M160 210h-3v4h3z"/><path fill="#FFB0B0" d="M170 210h-3v4h3z"/><path fill="#000" d="M174 210h-4v4h4z"/><path fill="#FFB0B0" d="M177 210h-3v4h3z"/><path fill="#000" d="M187 210h-3v4h3zm-57 4h-3v23h3z"/><path fill="#D61D32" d="M160 214h-3v3h3z"/><path fill="#000" d="M164 214h-4v3h4z"/><path fill="#FFB0B0" d="M174 214h-4v3h4z"/><path fill="#000" d="M177 214h-3v3h3z"/><path fill="#FFC3C3" fill-rule="evenodd" d="M197 194h-3v3h-4v3h-3v4h-3v3h-4v3h-3v7h3v-3h4v-4h3v-3h3v-3h4v-4h3z" clip-rule="evenodd"/><path fill="#000" d="M184 214h-4v3h4z"/><path fill="#D61D32" d="M164 217h-4v3h4z"/><path fill="#000" d="M167 217h-3v3h3z"/><path fill="#FFB0B0" d="M177 217h-3v3h3z"/><path fill="#000" d="M180 217h-3v3h3z"/><path fill="#D61D32" d="M167 220h-3v4h3z"/><path fill="#000" d="M170 220h-3v4h3z"/><path fill="#FFB0B0" d="M180 220h-3v4h3z"/><path fill="#000" d="M184 220h-4v4h4zm-31 4h-3v6h3z"/><path fill="#D61D32" fill-rule="evenodd" d="M154 214h-4v9h-3v7h3v-6h3v6h4v-6h-3z" clip-rule="evenodd"/><path fill="#D61D32" d="M170 224h-3v3h3z"/><path fill="#000" d="M174 224h-4v3h4z"/><path fill="#FFB0B0" d="M184 224h-4v3h4z"/><path fill="#000" d="M187 224h-3v3h3z"/><path fill="#F42941" fill-rule="evenodd" d="M200 210h-6v4h-4v3h-3v3h3v4h4v6h6z" clip-rule="evenodd"/><path fill="#000" d="M177 227h-3v3h3z"/><path fill="#FFB0B0" d="M187 227h-3v3h3z"/><path fill="#000" d="M190 227h-3v3h3zm14 0h-4v3h4z"/><path fill="#DC1F35" d="M147 230h-3v10h3z"/><path fill="#D61D32" d="M153 230h-3v7h3z"/><path fill="#000" d="M180 230h-3v4h3z"/><path fill="#FFC3C3" fill-rule="evenodd" d="M147 190h-10v4h7v3h3v3h3v4h4v3h3v3h3v4h4v3h3v3h3v4h4v3h3v3h3v4h7v-4h-3v-3h-4v-3h-3v-4h-3v-3h-4v-3h-3v-4h-3v-3h-4v-3h-3v-4h-3v-3h-4v-3h-3z" clip-rule="evenodd"/><path fill="#FFB0B0" d="M190 230h-3v4h3z"/><path fill="#D61D32" fill-rule="evenodd" d="M197 204h-3v3h-4v3h-3v4h-3v3h-4v3h4v4h3v3h3v7h7v-4h-3v-6h-4v-4h-3v-3h3v-3h4v-4h3z" clip-rule="evenodd"/><path fill="#000" d="M200 230h-3v4h3zm-33 4h-14v3h14z"/><path fill="#F42941" fill-rule="evenodd" d="M157 214h-3v10h3v6h-4v4h14v3h7v-3h-4v-7h-3v-3h-3v-4h-4v-3h-3z" clip-rule="evenodd"/><path fill="#D61D32" fill-rule="evenodd" d="M174 227h-4v7h4v3h3v-7h-3z" clip-rule="evenodd"/><path fill="#F42941" d="M180 234h-3v3h3z"/><path fill="#000" d="M197 234h-17v3h17z"/><path fill="#FFB0B0" fill-rule="evenodd" d="M200 230h4v7h-7v-3h3z" clip-rule="evenodd"/><path fill="#000" d="M127 237h-3v27h3zm26 0h-3v3h3zm27 0h-13v3h13z"/><path fill="#FFB0B0" d="M207 237h-3v3h3z"/><path fill="#DC1F35" d="M150 240h-3v7h3z"/><path fill="#FFB0B0" d="M207 244h-3v6h3z"/><path fill="#DC1F35" d="M154 247h-4v6h4z"/><path fill="#000" d="M210 247h-3v3h3zm-3 3h-3v4h3z"/><path fill="#DC1F35" d="M157 253h-3v7h3z"/><path fill="#000" d="M160 253h-3v4h3z"/><path fill="#FFB0B0" fill-rule="evenodd" d="M153 237h14v3h13v-3h17v3h-10v4h-10v3h-13v10h-4v-4h-3v-6h-4z" clip-rule="evenodd"/><path fill="#FFB0B0" d="M170 254h-3v3h3z"/><path fill="#FFC3C3" fill-rule="evenodd" d="M197 237h7v3h3v4h-3v10h-10v3h-24v-3h-3v3h-3v-10h13v-3h10v-4h10z" clip-rule="evenodd"/><path fill="#000" d="M204 254h-10v3h10zm-10 3h-37v3h37z"/><path fill="#DC1F35" d="M154 260h-7v4h7z"/><path fill="#000" d="M160 260h-6v4h6z"/><path fill="#D61D32" d="M217 260h-4v7h4z"/><path fill="#000" d="M124 264h-4v13h4z"/><path fill="#DC1F35" d="M150 264h-3v6h3z"/><path fill="#000" d="M157 264h-7v3h7zm-3 3h-4v3h4z"/><path fill="#D61D32" d="M220 267h-3v7h3zm-73 3h-3v7h3z"/><path fill="#000" d="M150 270h-3v7h3z"/><path fill="#D61D32" d="M223 273h-3v4h3z"/><path fill="#000" d="M120 277h-3v13h3z"/><path fill="#D61D32" d="M144 277h-4v3h4z"/><path fill="#000" d="M147 277h-3v3h3z"/><path fill="#D61D32" d="M140 280h-3v4h3z"/><path fill="#000" d="M144 280h-4v4h4z"/><path fill="#D61D32" d="M137 284h-3v3h3z"/><path fill="#000" d="M144 284h-7v3h7z"/><path fill="#D61D32" d="M134 287h-4v3h4z"/><path fill="#000" d="M137 287h-3v3h3zm7 0h-4v3h4zm-27 3h-3v10h3z"/><path fill="#F42941" fill-rule="evenodd" d="M150 207h-6v7h-4v13h-3v7h-3v10h-4v6h4v14h-4v13h-3v10h-3v7h3v-4h3v-3h4v-3h3v-4h3v-3h4v-7h3v-10h7v-7h-4v-6h-3v-7h-3v-10h3v-20h3z" clip-rule="evenodd"/><path fill="#D61D32" d="M130 290h-3v4h3z"/><path fill="#000" d="M134 290h-4v4h4zm6 0h-3v7h3z"/><path fill="#F42941" d="M124 297h-4v3h4z"/><path fill="#000" d="M144 297h-4v10h4zm-30 3h-4v7h4zm10 0h-4v4h4z"/><path fill="#DC1F35" fill-rule="evenodd" d="M140 197h-7v17h-3v23h-3v27h-3v13h-4v13h-3v10h-3v7h3v-3h3v-7h7v-3h-3v-7h3v-10h3v-13h4v-14h-4v-6h4v-10h3v-7h3v-13h4v-7h6v-3h-3v-4h-3v-3z" clip-rule="evenodd"/><path fill="#000" d="M140 307h-3v17h3zm117 13h-3v10h3zm-113 4h-4v13h4zm110 6h-4v7h4zm-110 7h-7v3h7zm106 0h-3v3h3zm-110 3h-3v7h3zm107 0h-7v4h7z"/><path fill="#D61D32" fill-rule="evenodd" d="M167 340h10v4h13v3h-30v-3h7z" clip-rule="evenodd"/><path fill="#F42941" fill-rule="evenodd" d="M213 260h-6v4h-10v3h-3v3h-7v4h-3v3h-4v3h-3v4h-3v6h-7v7h-3v3h-4v7h-3v7h-3v10h-4v16h4v4h3v3h3v-3h7v-4h10v4h13v3h4v-3h6v-4h10v-3h4v-3h3v-4h3v-6h4v-4h3v-3h3v-10h4v-7h-4v-10h-3v-6h-3v-7h-4v-3h-3v-7h-4z" clip-rule="evenodd"/><path fill="#000" d="M240 344h-10v3h10zm-10 3h-93v3h93z"/><path fill="#D61D32" fill-rule="evenodd" d="M210 250h-3v4h-3v3h-10v3h-24v7h-3v3h-4v3h-6v-3h-7v7h-3v3h-3v10h-4v7h4v10h-4v17h4v16h-4v7h17v-3h-3v-4h-4v-16h4v-10h3v-7h3v-7h4v-3h3v-7h7v-6h3v-4h3v-3h4v-3h3v-4h7v-3h3v-3h10v-4h6v-7h-3zm14 27h3v3h3v3h3v4h4v3h3v3h3v4h4v3h3v3h3v4h4v10h-3v13h-4v7h-3v3h-7v4h-10v3h-36v-3h6v-4h10v-3h4v-3h3v-4h3v-6h4v-4h3v-3h3v-10h4v-7h-4v-10h-3v-6h-3z" clip-rule="evenodd"/></svg>