<svg xmlns="http://www.w3.org/2000/svg" width="400" height="400" fill="none"><path fill="#000" d="M147 87h-7v3h7zm-7 3h-3v7h3zm-3 7h-3v3h3zm-3 3h-4v4h4zm-4 4h-3v3h3zm-3 3h-3v7h3z"/><path fill="#F42941" fill-rule="evenodd" d="M140 90h7v10h-3v4h-4v3h-3v3h-3v4h-7v-7h3v-3h4v-4h3v-3h3z" clip-rule="evenodd"/><path fill="#000" d="M153 140h-7v3h7z"/><path fill="#000" fill-rule="evenodd" d="M147 90h3v7h7v-3h13v-4h3v4h11v3h6v3h4v4h3v3h3v3h4v24h-3v3h-16v-3h-11v3h-24v-20h-3v3h-4v7h-3v10h-3v20h-3v-7h-4v-30h4v-3h-7v-3h7v-4h3v-3h3v-3h4v-4h3zm50 40v4h-3v-4z" clip-rule="evenodd"/><path fill="#000" d="M150 154h-3v3h3z"/></svg>