<svg xmlns="http://www.w3.org/2000/svg" width="400" height="400" fill="none"><path fill="#000" d="M183 104h-31v3h31zm-29 3h-10v3h10zm36 0h-3v3h3zm-46 3h-4v7h4zm50 0h-4v4h4zm-7 4h-37v3h37zm10 0h-3v3h3zm-57 3h-3v3h3zm7 0h-3v3h3zm43 0h-3v3h3zm10 0h-3v10h3z"/><path fill="#00B8ED" fill-rule="evenodd" d="M187 107h-35v3h-8v7h3v-3h40v3h3v3h3v7h4v-10h-3v-3h-4v-4h-3zm-43 10h-4v3h-3v14h3v-10h4z" clip-rule="evenodd"/><path fill="#000" d="M204 127h-7v3h7zm3 3h-3v4h3z"/><path fill="#000" fill-rule="evenodd" d="M137 120h-3v14h-7v3h17v-13h-4v10h-3z" clip-rule="evenodd"/><path fill="#C4E7F1" d="M207 134h-3v30h3z"/><path fill="#000" d="M210 134h-3v30h3zm-83 3h-7v3h7zm20 0h-3v27h3z"/><path fill="#00B8ED" fill-rule="evenodd" d="M197 130h7v34h-4v-27h-3z" clip-rule="evenodd"/><path fill="#000" d="M120 140h-3v24h3z"/><path fill="#C4E7F1" d="M124 140h-4v4h4z"/><path fill="#000" d="M137 144h-3v3h3z"/><path fill="#C4E7F1" fill-rule="evenodd" d="M144 137h-14v3h7v4h3v20h4z" clip-rule="evenodd"/><path fill="#000" d="M134 147h-4v7h4zm-4 7h-3v6h3z"/><path fill="#00B8ED" fill-rule="evenodd" d="M130 137h-3v3h-3v4h-4v20h20v-20h-3v-4h-7zm4 10v-3h3v3zm-4 7v-7h4v7zm0 6v-6h-3v6z" clip-rule="evenodd"/><path fill="#000" d="M127 164h-7v3h7z"/><path fill="#C4E7F1" d="M140 164h-13v3h13z"/><path fill="#000" d="M144 164h-4v3h4zm63 0h-7v3h7zm-67 3h-13v3h13z"/></svg>