<svg xmlns="http://www.w3.org/2000/svg" width="400" height="400" fill="none"><path fill="#530930" d="M170 140h-20v7h20zm27 0h-17v7h17z"/><path fill="#000" fill-rule="evenodd" d="M137 140h13v13h-3v-9h-10z" clip-rule="evenodd"/><path fill="#8C1955" d="M170 147h-20v3h20z"/><path fill="#000" fill-rule="evenodd" d="M174 137h-24v3h20v13h4v-9h3v9h3v-13h17v-3h-20v3h-3z" clip-rule="evenodd"/><path fill="#8C1955" d="M197 147h-17v3h17z"/><path fill="#C33980" d="M170 150h-20v3h20zm27 0h-17v3h17z"/><path fill="#000" d="M170 153h-20v3h20zm27 0h-17v3h17z"/></svg>