<svg xmlns="http://www.w3.org/2000/svg" width="400" height="400" fill="none"><path fill="#000" d="M147 180h-10v4h10zm10 4h-10v3h10z"/><path fill="#000" fill-rule="evenodd" d="M190 180h7v4h-3v3h-7v-3h3z" clip-rule="evenodd"/><path fill="#5B73DD" d="M197 184h-3v3h3zm-40 3h-3v3h3z"/><path fill="#000" d="M167 187h-10v3h10zm20 0h-7v3h7z"/><path fill="#5B73DD" d="M194 187h-7v3h7z"/><path fill="#758FFF" d="M197 187h-3v13h3z"/><path fill="#5B73DD" fill-rule="evenodd" d="M147 184h-10v10h3v-4h4v-3h3z" clip-rule="evenodd"/><path fill="#000" d="M147 190h-7v4h7z"/><path fill="#5B73DD" d="M167 190h-10v4h10z"/><path fill="#000" d="M140 194h-3v3h3z"/><path fill="#758FFF" d="M147 194h-3v3h3z"/><path fill="#000" d="M154 194h-7v3h7z"/><path fill="#000" fill-rule="evenodd" d="M167 190h13v17h-3v-13h-10z" clip-rule="evenodd"/><path fill="#D6A3D8" fill-rule="evenodd" d="M187 190h7v10h-10v-6h3z" clip-rule="evenodd"/><path fill="#758FFF" d="M150 197h-3v3h3z"/><path fill="#000" d="M157 197h-3v10h3zm-24 3h-3v10h3z"/><path fill="#D6A3D8" fill-rule="evenodd" d="M160 197h4v3h3v7h-10v-7h3z" clip-rule="evenodd"/><path fill="#758FFF" fill-rule="evenodd" d="M144 187h10v3h3v4h20v3h-3v3h-4v7h-3v-7h-3v-3h-4v3h-3v-3h-3v-3h-7v-4h-3z" clip-rule="evenodd"/><path fill="#D6A3D8" fill-rule="evenodd" d="M174 197h3v10h-7v-7h4z" clip-rule="evenodd"/><path fill="#D6A3D8" d="M197 200h-3v7h3z"/><path fill="#5B73DD" fill-rule="evenodd" d="M180 190h7v4h-3v6h10v7h-4v-3h-10z" clip-rule="evenodd"/><path fill="#758FFF" d="M144 207h-7v3h7z"/><path fill="#D6A3D8" fill-rule="evenodd" d="M147 197h-3v3h-4v7h4v3h3v-3h3v-7h-3z" clip-rule="evenodd"/><path fill="#5B73DD" fill-rule="evenodd" d="M150 197h4v13h-7v-3h3z" clip-rule="evenodd"/><path fill="#758FFF" d="M157 207h-3v3h3z"/><path fill="#000" d="M160 207h-3v13h3z"/><path fill="#758FFF" d="M167 207h-3v3h3z"/><path fill="#000" d="M184 207h-4v17h4zm-54 3h-3v7h3z"/><path fill="#758FFF" fill-rule="evenodd" d="M174 207h6v7h-3v-4h-3z" clip-rule="evenodd"/><path fill="#5B73DD" d="M200 210h-3v14h3z"/><path fill="#5B73DD" fill-rule="evenodd" d="M140 194h4v6h-4v7h-3v7h-3v3h-4v-7h3v-10h4v-3h3z" clip-rule="evenodd"/><path fill="#758FFF" d="M137 214h-3v3h3z"/><path fill="#758FFF" fill-rule="evenodd" d="M180 204h10v3h7v17h-3v-10h-4v-4h-6v-3h-4z" clip-rule="evenodd"/><path fill="#000" d="M137 217h-10v3h10z"/><path fill="#758FFF" d="M140 217h-3v3h3z"/><path fill="#D6A3D8" fill-rule="evenodd" d="M137 210h7v10h-4v-3h-3z" clip-rule="evenodd"/><path fill="#758FFF" fill-rule="evenodd" d="M144 210h3v7h3v3h-6z" clip-rule="evenodd"/><path fill="#D6A3D8" fill-rule="evenodd" d="M147 210h10v7h-3v3h-4v-3h-3z" clip-rule="evenodd"/><path fill="#758FFF" d="M157 217h-3v3h3z"/><path fill="#D6A3D8" fill-rule="evenodd" d="M167 207h3v7h4v3h-4v3h-3v-3h-3v-7h3zm23 3h-6v10h6v-3h4v-3h-4z" clip-rule="evenodd"/><path fill="#000" d="M157 220h-20v4h20z"/><path fill="#5B73DD" fill-rule="evenodd" d="M174 207h-4v7h4v3h-4v3h7v4h3v-10h-3v-4h-3zm16 10h4v7h-10v-4h6z" clip-rule="evenodd"/><path fill="#5B73DD" d="M184 224h-4v10h4z"/><path fill="#000" d="M187 224h-3v10h3z"/><path fill="#758FFF" d="M194 224h-7v3h7zm6 0h-3v3h3z"/><path fill="#5B73DD" d="M190 227h-3v7h3zm13 0h-3v7h3z"/><path fill="#D6A3D8" fill-rule="evenodd" d="M170 224h-3v3h-3v7h3v3h3v-3h4v-7h-4z" clip-rule="evenodd"/><path fill="#5B73DD" fill-rule="evenodd" d="M174 227h3v10h-7v-3h4z" clip-rule="evenodd"/><path fill="#5B73DD" d="M187 234h-3v10h3z"/><path fill="#000" d="M190 234h-3v10h3z"/><path fill="#758FFF" d="M194 234h-4v3h4z"/><path fill="#D6A3D8" fill-rule="evenodd" d="M197 224h-3v3h-4v7h4v3h3v-3h3v-7h-3z" clip-rule="evenodd"/><path fill="#758FFF" d="M203 234h-6v3h6z"/><path fill="#D6A3D8" d="M194 237h-4v7h4z"/><path fill="#758FFF" d="M197 237h-3v3h3z"/><path fill="#5B73DD" d="M197 240h-3v14h3z"/><path fill="#D6A3D8" fill-rule="evenodd" d="M167 237h-7v3h-3v4h3v3h4v-3h3z" clip-rule="evenodd"/><path fill="#5B73DD" fill-rule="evenodd" d="M167 237h3v10h-6v-3h3z" clip-rule="evenodd"/><path fill="#D6A3D8" fill-rule="evenodd" d="M177 237h-7v3h4v7h3v-3h3v-4h-3z" clip-rule="evenodd"/><path fill="#000" d="M194 244h-4v10h4z"/><path fill="#D6A3D8" fill-rule="evenodd" d="M197 237h10v7h-3v3h-4v-3h-3z" clip-rule="evenodd"/><path fill="#758FFF" fill-rule="evenodd" d="M197 244h3v3h4v-3h3v6h-3v4h-7z" clip-rule="evenodd"/><path fill="#D6A3D8" fill-rule="evenodd" d="M190 247h-6v3h-4v4h4v3h6z" clip-rule="evenodd"/><path fill="#000" d="M197 254h-3v6h3z"/><path fill="#5B73DD" d="M200 254h-3v6h3z"/><path fill="#5B73DD" fill-rule="evenodd" d="M207 247h3v6h3v4h-3v-3h-3z" clip-rule="evenodd"/><path fill="#5B73DD" d="M150 257h-3v3h3z"/><path fill="#D6A3D8" fill-rule="evenodd" d="M207 250h-3v4h-4v6h7v-3h3v-3h-3z" clip-rule="evenodd"/><path fill="#000" d="M213 257h-6v3h6z"/><path fill="#5B73DD" d="M154 260h-4v7h4z"/><path fill="#758FFF" fill-rule="evenodd" d="M164 217h3v3h10v4h3v10h4v10h6v3h-6v3h-4v4h4v3h3v3h-10v10h-3v-13h-4v-3h-3v-4h-3v-3h6v-7h4v7h3v-3h3v-4h-3v-13h-7v-3h-3v3h-3v7h3v3h-7v3h-3v-3h-3v-7h3v-3h3v-3h4z" clip-rule="evenodd"/><path fill="#D6A3D8" d="M184 260h-7v7h7z"/><path fill="#5B73DD" fill-rule="evenodd" d="M194 254h-4v3h-3v3h-3v4h6v-4h4z" clip-rule="evenodd"/><path fill="#000" d="M194 260h-4v4h4zm13 0h-10v4h10zm-17 4h-6v3h6zm-6 3h-7v3h7zm-20 3h-4v4h4z"/><path fill="#5B73DD" fill-rule="evenodd" d="M164 207h-4v13h-3v4h-10v6h3v10h3v7h4v7h6v3h4v3h3v7h-3v3h-4v4h7v-4h4v-13h-4v-3h-3v-4h-3v-3h-4v-3h-3v-7h-3v-7h3v-3h3v-3h4z" clip-rule="evenodd"/><path fill="#000" d="M180 270h-10v4h10zm-10 4h-10v3h10z"/></svg>