<svg xmlns="http://www.w3.org/2000/svg" width="400" height="400" fill="none"><path fill="#000" d="M160 97h-3v3h3zm17 0h-10v3h10zm10 0h-3v3h3zm-30 3h-3v7h3z"/><path fill="#906626" d="M160 100h-3v14h3z"/><path fill="#000" d="M164 100h-4v14h4zm20 0h-7v4h7z"/><path fill="#906626" d="M187 100h-3v4h3z"/><path fill="#000" d="M190 100h-3v4h3z"/><path fill="#FF3C00" fill-rule="evenodd" d="M164 100h13v4h-7v3h-6z" clip-rule="evenodd"/><path fill="#967A00" d="M184 104h-4v6h4z"/><path fill="#000" d="M187 104h-3v6h3z"/><path fill="#906626" d="M190 104h-3v6h3z"/><path fill="#000" d="M194 104h-4v6h4zm-37 3h-10v3h10zm-10 3h-7v4h7z"/><path fill="#FF3C00" d="M150 110h-3v4h3z"/><path fill="#962300" d="M154 110h-4v4h4z"/><path fill="#000" d="M157 110h-3v4h3z"/><path fill="#967A00" d="M187 110h-3v7h3z"/><path fill="#000" d="M190 110h-3v7h3z"/><path fill="#906626" d="M194 110h-4v7h4z"/><path fill="#000" d="M197 110h-3v7h3zm-57 4h-3v6h3zm14 0h-4v10h4z"/><path fill="#906626" d="M157 114h-3v10h3z"/><path fill="#000" d="M160 114h-3v10h3z"/><path fill="#FFD000" fill-rule="evenodd" d="M170 104h10v6h4v4h-14v3h-10v-3h4v-7h6z" clip-rule="evenodd"/><path fill="#962300" fill-rule="evenodd" d="M140 114h10v3h-3v3h-7z" clip-rule="evenodd"/><path fill="#967A00" d="M150 117h-3v7h3z"/><path fill="#506216" d="M190 117h-3v7h3z"/><path fill="#000" d="M194 117h-4v10h4zm6 0h-3v7h3zm-63 3h-3v7h3z"/><path fill="#962300" d="M140 120h-3v4h3z"/><path fill="#967A00" d="M154 124h-4v3h4z"/><path fill="#000" d="M157 124h-3v3h3zm27 0h-14v3h14zm20 0h-4v6h4zm-70 3h-4v10h4z"/><path fill="#967A00" fill-rule="evenodd" d="M144 120h-4v4h-3v3h-3v7h6v-7h4z" clip-rule="evenodd"/><path fill="#FFD000" fill-rule="evenodd" d="M147 120h-3v7h-4v3h7v-3h3v-3h-3z" clip-rule="evenodd"/><path fill="#000" d="M170 127h-10v3h10z"/><path fill="#000" fill-opacity=".412" d="M184 127h-14v3h14z"/><path fill="#000" d="M190 127h-6v3h6z"/><path fill="#506216" d="M194 127h-4v3h4z"/><path fill="#000" d="M160 130h-6v4h6z"/><path fill="#000" fill-opacity=".412" d="M170 130h-10v4h10z"/><path fill="#000" fill-rule="evenodd" d="M194 127h3v7h-7v-4h4z" clip-rule="evenodd"/><path fill="#000" d="M207 130h-3v14h3z"/><path fill="#88A626" fill-rule="evenodd" d="M184 114h-14v3h-10v7h-3v3h-10v3h-7v7h7v-3h7v-4h6v-3h10v-3h14v3h6v-3h-3v-7h-3z" clip-rule="evenodd"/><path fill="#000" d="M154 134h-7v3h7z"/><path fill="#000" fill-opacity=".412" d="M160 134h-6v3h6z"/><path fill="#000" d="M201 134h-4v3h4z"/><path fill="#906626" fill-rule="evenodd" d="M194 117h3v7h3v6h4v14h-3v-10h-4v-7h-3z" clip-rule="evenodd"/><path fill="#000" d="M130 137h-3v7h3z"/><path fill="#88A626" d="M140 137h-3v3h3z"/><path fill="#000" fill-opacity=".412" d="M154 137h-7v3h7zm43 0h-3v3h3z"/><path fill="#506216" fill-rule="evenodd" d="M140 134h-6v3h-4v7h4v-4h3v-3h3z" clip-rule="evenodd"/><path fill="#906626" d="M147 140h-3v4h3z"/><path fill="#000" d="M150 140h-3v4h3zm-16 4h-4v3h4z"/><path fill="#906626" d="M137 144h-3v3h3z"/><path fill="#000" fill-rule="evenodd" d="M147 137h-7v3h-6v4h3v3h3v-3h4v-4h3z" clip-rule="evenodd"/><path fill="#906626" d="M144 144h-4v3h4z"/><path fill="#000" d="M150 144h-6v3h6zm54 0h-3v3h3zm-74 3h-3v3h3z"/><path fill="#553C16" d="M134 147h-4v3h4z"/><path fill="#000" d="M137 147h-3v3h3z"/><path fill="#906626" d="M140 147h-3v3h3z"/><path fill="#000" d="M144 147h-4v3h4z"/><path fill="#553C16" d="M147 147h-3v3h3z"/><path fill="#906626" d="M150 147h-3v3h3z"/><path fill="#000" d="M154 147h-4v7h4zm-27 3h-3v10h3z"/><path fill="#553C16" d="M130 150h-3v10h3z"/><path fill="#000" d="M134 150h-4v10h4z"/><path fill="#906626" d="M137 150h-3v10h3z"/><path fill="#000" d="M140 150h-3v10h3z"/><path fill="#906626" d="M144 150h-4v10h4zm10 4h-4v3h4z"/><path fill="#000" d="M157 154h-3v3h3zm30 0h-24v3h24zm10 0h-3v3h3z"/><path fill="#000" fill-rule="evenodd" d="M144 150h3v7h3v3h-6z" clip-rule="evenodd"/><path fill="#906626" d="M157 157h-3v3h3z"/><path fill="#000" d="M160 157h-3v3h3zm34 0h-7v3h7z"/><path fill="#553C16" d="M197 157h-3v10h3z"/><path fill="#000" d="M124 160h-4v10h4z"/><path fill="#553C16" d="M127 160h-3v10h3z"/><path fill="#000" d="M130 160h-3v10h3z"/><path fill="#906626" d="M134 160h-4v10h4z"/><path fill="#000" d="M137 160h-3v10h3z"/><path fill="#906626" d="M140 160h-3v10h3z"/><path fill="#000" d="M144 160h-4v10h4zm9 0h-3v7h3zm4 7h-4v17h4zm40 0h-3v13h3zm-77 3h-3v14h3z"/><path fill="#553C16" d="M124 170h-4v4h4z"/><path fill="#000" d="M127 170h-3v14h3z"/><path fill="#906626" d="M130 170h-3v14h3z"/><path fill="#000" d="M134 170h-4v14h4z"/><path fill="#906626" d="M137 170h-3v14h3z"/><path fill="#000" d="M140 170h-3v14h3z"/><path fill="#553C16" fill-rule="evenodd" d="M170 167h14v3h-4v4h-6v-4h-4z" clip-rule="evenodd"/><path fill="#88A626" d="M124 174h-4v3h4z"/><path fill="#553C16" d="M124 177h-4v3h4z"/><path fill="#88A626" d="M124 180h-4v4h4z"/><path fill="#000" d="M117 184h-3v13h3z"/><path fill="#553C16" d="M120 184h-3v13h3z"/><path fill="#000" d="M124 184h-4v13h4z"/><path fill="#906626" d="M127 184h-3v13h3z"/><path fill="#000" d="M130 184h-3v13h3z"/><path fill="#FF3C00" d="M140 184h-3v3h3z"/><path fill="#000" d="M143 184h-3v13h3zm3 0h-3v3h3z"/><path fill="#000" fill-opacity=".063" d="M150 184h-3v3h3z"/><path fill="#000" d="M160 184h-3v13h3z"/><path fill="#906626" d="M140 187h-3v3h3z"/><path fill="#FF3C00" d="M140 190h-3v4h3z"/><path fill="#849362" fill-opacity=".204" d="M157 190h-3v4h3z"/><path fill="#906626" d="M140 194h-3v3h3z"/><path fill="#000" d="M197 194h-3v10h3zm-77 3h-3v3h3zm7 0h-3v3h3zm13 0h-3v6h3z"/><path fill="#85935E" fill-opacity=".286" d="M160 197h-3v3h3z"/><path fill="#000" d="M164 197h-4v7h4z"/><path fill="#906626" fill-rule="evenodd" d="M164 157h-4v3h-3v4h3v10h4v10h3v10h3v3h4v3h10v-3h3v-13h3v-14h4v-10h-7v-3h-4v3h4v4h-3v6h-4v4h-6v-4h-4v-3h-3v-3h-3z" clip-rule="evenodd"/><path fill="#000" d="M167 204h-3v3h3zm27 0h-4v3h4zm-24 3h-3v3h3z"/><path fill="#553C16" fill-rule="evenodd" d="M150 150h-3v7h3v3h3v7h4v17h3v13h4v7h3v3h3v3h17v-3h3v-3h4v-10h3v-14h-3v-10h-4v14h-3v13h-3v3h-10v-3h-4v-3h-3v-10h-3v-10h-4v-10h-3v-4h-3v-3h-4z" clip-rule="evenodd"/><path fill="#000" d="M190 207h-3v3h3zm4 0h-4v3h4zm-7 3h-17v4h17z"/></svg>