<svg xmlns="http://www.w3.org/2000/svg" width="400" height="400" fill="none"><path fill="#000" d="M180 234h-3v3h3zm-3 3h-3v3h3zm7 0h-4v3h4zm-10 3h-4v4h4zm13 0h-3v4h3zm-10 4h-3v3h3z"/><path fill="#DFA027" fill-rule="evenodd" d="M180 237h-3v3h-3v4h3v3h3v-3h4v-4h-4z" clip-rule="evenodd"/><path fill="#DFA027" d="M187 244h-3v3h3z"/><path fill="#000" d="M190 244h-3v3h3zm-16 3h-4v3h4zm6 0h-3v3h3z"/><path fill="#DFA027" d="M190 247h-3v3h3z"/><path fill="#000" d="M194 247h-4v3h4zm-24 3h-3v4h3zm27 0h-3v4h3zm-30 4h-3v3h3z"/><path fill="#91AEC3" fill-rule="evenodd" d="M177 247h-3v3h-4v4h-3v3h7v-3h3z" clip-rule="evenodd"/><path fill="#000" fill-rule="evenodd" d="M180 250h4v4h3v3h-7z" clip-rule="evenodd"/><path fill="#F8B32F" fill-rule="evenodd" d="M180 244h4v3h3v3h7v4h-4v3h-3v-3h-3v-4h-4z" clip-rule="evenodd"/><path fill="#000" d="M194 254h-4v3h4zm-44 3h-10v3h10zm20 0h-3v7h3zm10 0h-3v3h3zm10 0h-3v3h3zm-50 3h-6v4h6zm14 0h-4v4h4z"/><path fill="#9FC1D8" fill-rule="evenodd" d="M177 250h3v7h-3v3h-3v4h-4v-7h4v-3h3z" clip-rule="evenodd"/><path fill="#000" d="M177 260h-3v4h3zm-43 4h-4v10h4zm23 0h-3v6h3zm17 0h-4v3h4z"/><path fill="#859EB0" fill-rule="evenodd" d="M140 260h10v4h-6v3h-4v3h-3v4h-3v-10h6z" clip-rule="evenodd"/><path fill="#91AEC3" fill-rule="evenodd" d="M150 264h-6v3h-4v3h-3v4h7v-4h3v-3h3z" clip-rule="evenodd"/><path fill="#9FC1D8" fill-rule="evenodd" d="M154 264h-4v3h-3v3h-3v4h13v-4h-3z" clip-rule="evenodd"/><path fill="#000" d="M130 274h-3v10h3z"/><path fill="#859EB0" d="M134 274h-4v3h4z"/><path fill="#9FC1D8" d="M164 274h-7v3h7z"/><path fill="#000" fill-rule="evenodd" d="M157 270h10v14h-3v-10h-7z" clip-rule="evenodd"/><path fill="#45D067" d="M140 277h-3v3h3zm14 0h-4v3h4z"/><path fill="#3DB95B" d="M134 280h-4v4h4z"/><path fill="#57E97A" fill-rule="evenodd" d="M157 274h-23v3h-4v3h7v4h20v-4h3v-3h-3zm-3 6v-3h-4v3zm-14 0h-3v-3h3z" clip-rule="evenodd"/><path fill="#000" d="M134 284h-4v6h4z"/><path fill="#2FC453" d="M144 284h-4v3h4zm16 0h-3v3h3z"/><path fill="#000" d="M164 284h-4v6h4z"/><path fill="#2FC453" d="M150 287h-3v3h3z"/><path fill="#000" d="M140 290h-6v4h6z"/><path fill="#39D95F" fill-rule="evenodd" d="M160 277h4v7h-7v-4h3zm-6 13h6v-3h-3v-3h-13v3h-4v-3h-3v-4h-3v10h6v4h14zm-4 0v-3h-3v3z" clip-rule="evenodd"/><path fill="#000" d="M160 290h-6v4h6zm-6 4h-14v3h14z"/></svg>