<svg xmlns="http://www.w3.org/2000/svg" width="400" height="400" fill="none"><path fill="#000" d="M237 154h-3v3h3zm-3 3h-4v3h4zm6 0h-3v7h3zm-26 3h-4v4h4zm16 0h-3v4h3z"/><path fill="#999" d="M214 164h-4v3h4z"/><path fill="#000" d="M227 164h-3v3h3zm10 0h-3v6h3z"/><path fill="#000" fill-rule="evenodd" d="M110 164h7v3h-3v3h-4z" clip-rule="evenodd"/><path fill="#999" d="M117 167h-3v3h3z"/><path fill="#000" d="M120 167h-3v3h3z"/><path fill="#B0ADAD" d="M214 167h-4v7h4zm20 0h-4v3h4z"/><path fill="#000" fill-rule="evenodd" d="M87 167h7v3h-4v7h-3z" clip-rule="evenodd"/><path fill="#999" d="M94 170h-4v7h4z"/><path fill="#000" d="M97 170h-3v4h3zm20 0h-3v7h3z"/><path fill="#B0ADAD" d="M120 170h-3v4h3z"/><path fill="#000" d="M124 170h-4v4h4z"/><path fill="#000" fill-rule="evenodd" d="M207 164h3v10h-10v-4h7z" clip-rule="evenodd"/><path fill="#999" fill-rule="evenodd" d="M237 157h-3v3h-4v4h-3v3h-3v7h3v-4h3v-3h4v-3h3z" clip-rule="evenodd"/><path fill="#000" d="M234 170h-4v7h4z"/><path fill="#B0ADAD" d="M97 174h-3v3h3z"/><path fill="#000" d="M100 174h-3v3h3z"/><path fill="#999" d="M120 174h-3v3h3z"/><path fill="#B0ADAD" d="M124 174h-4v6h4z"/><path fill="#000" d="M127 174h-3v6h3z"/><path fill="#000" fill-rule="evenodd" d="M217 164h-3v10h-4v3h14v-10h-4v7h-3z" clip-rule="evenodd"/><path fill="#B0ADAD" fill-rule="evenodd" d="M227 170h3v7h-6v-3h3z" clip-rule="evenodd"/><path fill="#999" d="M97 177h-3v7h3z"/><path fill="#B0ADAD" d="M100 177h-3v3h3z"/><path fill="#000" d="M104 177h-4v3h4zm126 0h-6v3h6z"/><path fill="#B0ADAD" d="M104 180h-7v4h7z"/><path fill="#999" d="M124 180h-4v4h4z"/><path fill="#B0ADAD" d="M127 180h-3v4h3z"/><path fill="#000" d="M144 180h-17v4h17z"/><path fill="#7F7F7F" fill-rule="evenodd" d="M200 177h7v3h13v4h-20z" clip-rule="evenodd"/><path fill="#686868" fill-rule="evenodd" d="M210 174h-10v3h7v3h13v4h10v-4h-6v-3h-14z" clip-rule="evenodd"/><path fill="#000" d="M234 180h-4v4h4z"/><path fill="#999" d="M100 184h-3v6h3z"/><path fill="#B0ADAD" d="M104 184h-4v3h4z"/><path fill="#000" fill-rule="evenodd" d="M120 177h-3v7h-10v-4h-3v7h23v-3h-7z" clip-rule="evenodd"/><path fill="#000" d="M147 184h-3v3h3zm-43 3h-4v3h4z"/><path fill="#000" fill-rule="evenodd" d="M200 174h-3v16h3v-3h30v-3h-30z" clip-rule="evenodd"/><path fill="#000" d="M234 187h-4v20h4z"/><path fill="#7F7F7F" fill-rule="evenodd" d="M144 184h-7v3h-7v3h-23v4h40v-7h-3z" clip-rule="evenodd"/><path fill="#000" fill-rule="evenodd" d="M147 187h13v3h-10v4h-3z" clip-rule="evenodd"/><path fill="#000" d="M164 190h-4v4h4zm33 0h-3v7h3zm7 0h-4v20h4z"/><path fill="#686868" fill-rule="evenodd" d="M127 184h10v3h-7v3h-23v4h-3v3h-7v-3h3v-4h4v-3h23z" clip-rule="evenodd"/><path fill="#000" d="M170 194h-6v3h6zm4 3h-4v3h4zm20 0h-4v3h4z"/><path fill="#000" fill-rule="evenodd" d="M90 177h4v7h3v6h3v4h-3v3h7v-3h43v3h-40v3H97v4h-3v-7h-4v-3h4v-7h-4z" clip-rule="evenodd"/><path fill="#000" d="M177 200h-3v4h3zm-77 4h-3v6h3zm80 0h-3v3h3zm10 0h-3v6h3zm-40 3h-3v13h3zm34 0h-4v3h4zm46 0h-3v13h3zm-126 3h-4v7h4zm103 0h-3v17h3zm-100 7h-3v7h3zm40 3h-3v7h3z"/><path fill="#202020" fill-rule="evenodd" d="M200 190h-3v7h-3v3h-4v10h-3v24h3v-14h4v-6h3v-7h3z" clip-rule="evenodd"/><path fill="#000" d="M114 227h-4v3h4zm36 0h-3v7h3zm57 0h-7v3h7zm-90 3h-3v4h3z"/><path fill="#393939" fill-rule="evenodd" d="M197 207h3v3h4v17h-4v3h-6v4h-4v-14h4v-6h3z" clip-rule="evenodd"/><path fill="#000" d="M200 230h-6v4h6zm-80 4h-3v3h3z"/><path fill="#202020" d="M150 234h-3v3h3z"/><path fill="#000" d="M154 234h-4v6h4z"/><path fill="#393939" fill-rule="evenodd" d="M150 190h10v4h4v3h6v3h4v4h3v3h3v3h4v24h-7v3h-7v-3h-6v-4h-4v-13h-3v-10h-3v-13h-4z" clip-rule="evenodd"/><path fill="#000" fill-rule="evenodd" d="M184 210h3v24h7v3h-17v-3h7z" clip-rule="evenodd"/><path fill="#000" d="M124 237h-4v3h4zm53 0h-10v3h10z"/><path fill="#202020" fill-rule="evenodd" d="M200 187h30v10h-3v-3h-7v3h-3v3h-3v4h-4v16h4v17h3v10h-7v-10h-3v-27h-3v-20h-4z" clip-rule="evenodd"/><path fill="#393939" fill-rule="evenodd" d="M220 194h7v3h3v10h-3v13h-3v14h-4v10h-3v-7h-3v-17h-4v-16h4v-4h3v-3h3z" clip-rule="evenodd"/><path fill="#000" d="M127 240h-3v4h3zm30 0h-3v7h3z"/><path fill="#202020" fill-rule="evenodd" d="M154 194h-7v6h-3v14h-4v16h4v4h3v-7h3v7h4v6h3v4h3v-4h7v-3h3v-3h-6v-4h-4v-13h-3v-10h-3zm-7 26v7h-3v-7zm0 0v-13h3v13z" clip-rule="evenodd"/><path fill="#000" d="M130 244h-3v3h3z"/><path fill="#000" fill-rule="evenodd" d="M224 220h3v17h-3v10h-7v-3h3v-10h4z" clip-rule="evenodd"/><path fill="#000" d="M134 247h-4v3h4zm26 0h-3v7h3zm57 0h-3v3h3zm-80 3h-3v4h3zm3 4h-3v3h3z"/><path fill="#393939" fill-rule="evenodd" d="M147 197h-10v3h-7v4h-13v13h3v3h4v7h3v7h3v3h4v3h3v4h3v6h4v4h3v3h7v-3h3v-7h-3v-7h-4v-3h-3v-3h-3v-4h-4v-16h4v-14h3z" clip-rule="evenodd"/><path fill="#000" d="M160 254h-6v3h6zm-16 3h-4v3h4z"/><path fill="#202020" fill-rule="evenodd" d="M107 197h30v3h-7v4h-13v13h3v3h4v7h3v7h3v3h4v3h3v4h3v6h4v4h3v3h3v3h-6v-3h-4v-3h-3v-4h-3v-3h-4v-3h-3v-4h-3v-3h-4v-3h-3v-4h-3v-3h-7v-10h-3v-7h-4v-6h-3v-4h10z" clip-rule="evenodd"/><path fill="#000" d="M154 257h-4v3h4zm-4 3h-6v4h6z"/></svg>