<svg xmlns="http://www.w3.org/2000/svg" width="400" height="400" fill="none"><path fill="#000" d="M193 170h-3v4h3z"/><path fill="#3D3B3B" d="M197 170h-4v3h4z"/><path fill="#FDFAFA" d="M193 174h-3v3h3z"/><path fill="#000" d="M153 177h-3v7h3z"/><path fill="#FDFAFA" d="M160 177h-3v3h3z"/><path fill="#000" d="M167 177h-3v3h3zm-33 3h-4v4h4zm33 0h-3v4h3zm3 0h-3v4h3zm17 0h-3v4h3zm7 0h-4v17h4zm-64 4h-3v3h3zm27 0h-4v3h4z"/><path fill="#FDFAFA" d="M167 184h-3v3h3z"/><path fill="#000" d="M170 184h-3v10h3zm14 0h-4v23h4z"/><path fill="#FDFAFA" d="M187 184h-3v3h3z"/><path fill="#3D3B3B" fill-rule="evenodd" d="M137 166h-17v4h-3v4h-7v3h-3v3h-3v4h-4v3h7v3h10v-3h10v-3h3v-4h4v-6h3z" clip-rule="evenodd"/><path fill="#000" d="M127 187h-10v3h10zm33 0h-3v7h3z"/><path fill="#EF60AF" fill-opacity=".063" d="M180 187h-3v7h3z"/><path fill="#000" fill-rule="evenodd" d="M130 160h3v3h4v3h-17v-3h10zm-30 30h7v-3h-7v-3h4v-4h3v-3h3v-3h7v-4h3v-4h-6v4h-7v4h-3v3h-4v3h-3v17h3z" clip-rule="evenodd"/><path fill="#3D3B3B" d="M104 190h-4v7h4z"/><path fill="#5D5C5C" d="M107 190h-3v7h3z"/><path fill="#000" d="M117 190h-10v4h10z"/><path fill="#FDFAFA" d="M130 190h-3v4h3z"/><path fill="#5D5C5C" fill-rule="evenodd" d="M153 177h4v3h3v-3h4v10h3v3h-3v4h-4v-7h-3v-3h-4z" clip-rule="evenodd"/><path fill="#FDFAFA" d="M167 190h-3v4h3zm20 0h-3v4h3zm-77 4h-3v3h3z"/><path fill="#5D5C5C" fill-rule="evenodd" d="M117 190h10v4h-3v3h-14v-3h7z" clip-rule="evenodd"/><path fill="#FDFAFA" d="M127 194h-3v3h3z"/><path fill="#5D5C5C" d="M130 194h-3v3h3z"/><path fill="#000" d="M164 194h-4v10h4zm10 0h-4v16h4zm-70 3h-4v3h4z"/><path fill="#3D3B3B" d="M110 197h-6v3h6z"/><path fill="#FDFAFA" d="M124 197h-14v3h14z"/><path fill="#000" d="M133 197h-3v3h3z"/><path fill="#3D3B3B" fill-rule="evenodd" d="M137 184h3v10h-3v6h-4v-3h-3v-3h4v-4h3z" clip-rule="evenodd"/><path fill="#FDFAFA" d="M160 197h-3v3h3zm10 0h-3v3h3zm17 0h-3v3h3zm7 0h-4v3h4z"/><path fill="#000" d="M114 200h-10v4h10z"/><path fill="#3D3B3B" fill-rule="evenodd" d="M124 197h6v3h-3v4h-13v-4h10z" clip-rule="evenodd"/><path fill="#000" d="M130 200h-3v4h3zm7 0h-4v20h4z"/><path fill="#3D3B3B" d="M150 200h-3v4h3z"/><path fill="#FDFAFA" d="M157 200h-3v4h3z"/><path fill="#000" d="M127 204h-13v3h13z"/><path fill="#3D3B3B" d="M154 204h-4v30h4z"/><path fill="#FDFAFA" d="M164 204h-4v3h4zm6 0h-3v3h3zm17 0h-3v3h3z"/><path fill="#000" d="M150 207h-3v27h3zm27 0h-3v3h3zm10 0h-3v23h3z"/><path fill="#FDFAFA" d="M190 207h-3v3h3zm-16 3h-4v4h4z"/><path fill="#000" d="M177 210h-3v17h3z"/><path fill="#FDFAFA" d="M190 214h-3v3h3zm-16 3h-4v3h4z"/><path fill="#000" d="M134 220h-4v14h4z"/><path fill="#FDFAFA" d="M164 220h-7v7h7zm26 0h-3v4h3zm-16 4h-4v3h4z"/><path fill="#000" d="M180 227h-3v3h3z"/><path fill="#FDFAFA" d="M190 227h-3v3h3zm-10 3h-3v4h3zm20 0h-3v4h3z"/><path fill="#000" d="M137 234h-4v10h4zm17 0h-4v6h4z"/><path fill="#3D3B3B" d="M157 234h-3v6h3zm-17 3h-3v7h3z"/><path fill="#FDFAFA" d="M180 237h-3v3h3z"/><path fill="#000" d="M157 240h-3v7h3zm53 0h-3v4h3zm-70 4h-3v6h3z"/><path fill="#3D3B3B" d="M144 244h-4v6h4zm16 0h-3v3h3z"/><path fill="#000" d="M210 244h-6v3h6z"/><path fill="#5D5C5C" fill-rule="evenodd" d="M164 194h6v3h-3v3h3v4h-3v3h3v7h4v3h-4v3h4v4h-4v3h7v7h3v3h-3v3h3v4h4v6h-20v-3h-4v-3h-3v-10h-3v-30h3v-4h3v7h4zm0 30v3h-7v-7h7zm29-51h4v37h3v17h3v10h4v7h-3v3h-4v3h-13v-10h-3v-10h6v-3h-3v-3h3v-4h-3v-3h3v-3h-3v-4h3v-3h-3v-3h-3v-4h3v-3h-3v-3h3v-4h-3v-3h3v-7h3v20h4v-20h-4v-3h3zm7 61v-4h-3v4z" clip-rule="evenodd"/><path fill="#000" d="M204 247h-4v3h4zm3 0h-3v3h3z"/><path fill="#CE499E" fill-opacity=".082" d="M210 247h-3v3h3z"/><path fill="#000" d="M144 250h-4v10h4z"/><path fill="#000" fill-rule="evenodd" d="M180 230h4v10h3v10h13v4h-23v3h-14v-3h-6v-7h7v3h20v-6h-4z" clip-rule="evenodd"/><path fill="#5D5C5C" fill-rule="evenodd" d="M143 170h-6v3h-3v11h-4v3h-3v3h3v4h4v-4h3v-6h3v10h-3v26h-4v14h4v3h3v7h4v6h3v4h3v6h4v-3h3v-10h-3v-7h-4v-6h-3v-27h3v-3h4v-4h3v-3h3v-3h-3v-7h-4v-3h-3v-7h3v-4h-10zm7 34h-3v-4h3z" clip-rule="evenodd"/><path fill="#000" d="M157 257h-3v3h3zm-10 3h-3v4h3z"/><path fill="#3D3B3B" fill-rule="evenodd" d="M147 250h-3v10h3v4h7v-4h-4v-6h-3z" clip-rule="evenodd"/><path fill="#000" d="M150 264h-6v3h6z"/><path fill="#000" fill-opacity=".988" d="M154 264h-4v3h4z"/></svg>