<svg width="400" height="400" viewBox="0 0 400 400" fill="none" xmlns="http://www.w3.org/2000/svg">
<path fill-rule="evenodd" clip-rule="evenodd" d="M180 287H170V290H177V293H180V290V287Z" fill="#36505B"/>
<rect x="180" y="293" width="3" height="4" fill="#36505B"/>
<rect x="183" y="297" width="4" height="10" fill="#36505B"/>
<rect x="180" y="307" width="3" height="3" fill="#36505B"/>
<rect x="177" y="310" width="3" height="3" fill="#36505B"/>
<rect x="173" y="313" width="4" height="7" fill="#36505B"/>
<path fill-rule="evenodd" clip-rule="evenodd" d="M163 340H160V347H163H180V343H163V340Z" fill="#36505B"/>
<rect x="173" y="340" width="4" height="3" fill="#A59B8F"/>
<rect x="180" y="297" width="3" height="10" fill="#A59B8F"/>
<rect x="177" y="293" width="3" height="4" fill="#A59B8F"/>
<rect x="177" y="307" width="3" height="3" fill="#A59B8F"/>
<rect x="173" y="310" width="4" height="3" fill="#A59B8F"/>
<rect x="170" y="327" width="3" height="3" fill="#A59B8F"/>
<path fill-rule="evenodd" clip-rule="evenodd" d="M177 290H170V293V307H173V293H177V290Z" fill="#A59B8F"/>
<path fill-rule="evenodd" clip-rule="evenodd" d="M173 293H177V297H180V307H177V313H173V327H170V340H173V343H163V340V334H167V320H170V307H173V293Z" fill="#EEEEC2"/>
<rect x="163" y="330" width="4" height="4" fill="#A59B8F"/>
<rect x="204" y="323" width="3" height="4" fill="#A59B8F"/>
<rect x="204" y="337" width="3" height="3" fill="#A59B8F"/>
<rect x="207" y="340" width="3" height="3" fill="#A59B8F"/>
<path fill-rule="evenodd" clip-rule="evenodd" d="M197 340H193V347H197H213V343H197V340Z" fill="#36505B"/>
<rect x="197" y="330" width="3" height="13" fill="#A59B8F"/>
<path fill-rule="evenodd" clip-rule="evenodd" d="M200 323H204V337V340H207V343H200V340V337V323Z" fill="#EEEEC2"/>
<path fill-rule="evenodd" clip-rule="evenodd" d="M203 317H200V320V323H207V320H203V317Z" fill="#36505B"/>
</svg>
