<svg width="400" height="400" viewBox="0 0 400 400" fill="none" xmlns="http://www.w3.org/2000/svg">
<path d="M133 166H130V170H133V166Z" fill="#020202"/>
<path d="M130 170H127V187H130V170Z" fill="#020202"/>
<path d="M137 170H130V173H137V170Z" fill="#36505B"/>
<path d="M140 170H137V173H140V170Z" fill="#020202"/>
<path fill-rule="evenodd" clip-rule="evenodd" d="M130 173H140V177V180H137V177H130V173Z" fill="#A59B8F"/>
<path d="M143 177H140V180H143V177Z" fill="#36505B"/>
<path d="M197 177H193V180H197V177Z" fill="#020202"/>
<path d="M143 180H140V183H143V180Z" fill="#A59B8F"/>
<path d="M193 180H190V183H193V180Z" fill="#36505B"/>
<path d="M204 180H201V187H204V180Z" fill="#020202"/>
<path fill-rule="evenodd" clip-rule="evenodd" d="M143 180H150V183V207H147V183H143V180Z" fill="#36505B"/>
<path d="M190 183H153V187H190V183Z" fill="#36505B"/>
<path d="M127 187H123V190H127V187Z" fill="#020202"/>
<path d="M130 187H127V190H130V187Z" fill="#A59B8F"/>
<path d="M140 187H133V200H140V187Z" fill="#E33596"/>
<path d="M143 187H140V200H143V187Z" fill="#4D0C4C"/>
<path d="M204 187H201V197H204V187Z" fill="#020202"/>
<path d="M123 190H120V207H123V190Z" fill="#020202"/>
<path d="M127 190H123V193H127V190Z" fill="#A59B8F"/>
<path fill-rule="evenodd" clip-rule="evenodd" d="M193 180H197V183V187H201V190V193H197V190H193V187H190V183H193V180Z" fill="#A59B8F"/>
<path d="M204 197H170V200H204V197Z" fill="#020202"/>
<path fill-rule="evenodd" clip-rule="evenodd" d="M137 177H130V180V183V187V190H127V193H123V200V203H143V200H133V193V190V187H143V183H140V180H137V177Z" fill="#EEEEC2"/>
<path d="M170 200H167V203H170V200Z" fill="#020202"/>
<path d="M173 200H170V203H173V200Z" fill="#3C3E86"/>
<path d="M204 200H200V203H204V200Z" fill="#020202"/>
<path d="M137 203H123V207H137V203Z" fill="#36505B"/>
<path fill-rule="evenodd" clip-rule="evenodd" d="M143 183H147V203V207H137V203H143V183Z" fill="#A59B8F"/>
<path d="M167 203H163V207H167V203Z" fill="#020202"/>
<path d="M170 203H167V207H170V203Z" fill="#3C3E86"/>
<path d="M207 203H204V230H207V203Z" fill="#020202"/>
<path d="M147 207H137V210H147V207Z" fill="#36505B"/>
<path d="M163 207H160V227H163V207Z" fill="#020202"/>
<path fill-rule="evenodd" clip-rule="evenodd" d="M123 207H137V210H127V223H123V210V207Z" fill="#020202"/>
<path d="M137 210H127V213H137V210Z" fill="#A59B8F"/>
<path d="M183 210H180V213H183V210Z" fill="#3C3E86"/>
<path d="M153 213H150V237H153V213Z" fill="#020202"/>
<path fill-rule="evenodd" clip-rule="evenodd" d="M177 200H173V203H170V207H167V210H170V213H173V217H177V213H180V210H183V207H180V203H177V200Z" fill="#FA8E10"/>
<path d="M180 213H177V217H180V213Z" fill="#3C3E86"/>
<path fill-rule="evenodd" clip-rule="evenodd" d="M200 207H197V210H193V213H197V217H200V213H204V210H200V207Z" fill="#EEEEC2"/>
<path d="M123 223H120V237H123V223Z" fill="#020202"/>
<path d="M127 223H123V227H127V223Z" fill="#A59B8F"/>
<path fill-rule="evenodd" clip-rule="evenodd" d="M163 207H167V210H170V213H173V217H177V220H173V223H170V227H163V223V220V217V213V210V207Z" fill="#3C3E86"/>
<path d="M167 227H163V230H167V227Z" fill="#020202"/>
<path fill-rule="evenodd" clip-rule="evenodd" d="M200 200H177V203H180V207H183V210H190V213H187V217V220H190V223H193V227H197V230H204V227V223V220V217V213H200V217H197V213H193V210H197V207H200V210H204V207V203H200V200Z" fill="#3C3E86"/>
<path fill-rule="evenodd" clip-rule="evenodd" d="M150 213H137V217H147V230H140V233H150V230V217V213Z" fill="#A59B8F"/>
<path d="M170 230H167V233H170V230Z" fill="#020202"/>
<path fill-rule="evenodd" clip-rule="evenodd" d="M190 210H183V213H180V217H177V220H173V223H170V227H167V230H170V233H200V230H197V227H193V223H190V220H187V217V213H190V210Z" fill="#9F2727"/>
<path d="M203 230H200V233H203V230Z" fill="#020202"/>
<path fill-rule="evenodd" clip-rule="evenodd" d="M137 213H127V217V227H123V230V233V237H137V233H140V230H147V227V217H137V213Z" fill="#EEEEC2"/>
<path d="M140 233H137V237H140V233Z" fill="#A59B8F"/>
<path d="M150 233H140V237H150V233Z" fill="#36505B"/>
<path d="M200 233H170V237H200V233Z" fill="#020202"/>
<path d="M127 237H123V240H127V237Z" fill="#020202"/>
<path d="M140 237H127V240H140V237Z" fill="#36505B"/>
<path d="M150 237H140V240H150V237Z" fill="#020202"/>
<path d="M157 237H153V240H157V237Z" fill="#020202"/>
<path fill-rule="evenodd" clip-rule="evenodd" d="M157 187H153V210H150V213H153V233V237H157V240H160V237V233H157V213V210V187Z" fill="#A59B8F"/>
<path d="M207 237H203V247H207V237Z" fill="#36505B"/>
<path d="M140 240H127V243H140V240Z" fill="#020202"/>
<path d="M160 240H157V247H160V240Z" fill="#020202"/>
<path d="M200 240H197V247H200V240Z" fill="#020202"/>
<path d="M130 243H127V247H130V243Z" fill="#020202"/>
<path fill-rule="evenodd" clip-rule="evenodd" d="M153 237H150V240H140V243H153V247H157V243V240H153V237Z" fill="#A59B8F"/>
<path d="M133 247H130V253H133V247Z" fill="#020202"/>
<path fill-rule="evenodd" clip-rule="evenodd" d="M130 243H140V247H137V253H133V247H130V243Z" fill="#A59B8F"/>
<path d="M160 247H157V253H160V247Z" fill="#36505B"/>
<path fill-rule="evenodd" clip-rule="evenodd" d="M160 240H163V250H170V253H163H160V240Z" fill="#A59B8F"/>
<path d="M197 247H183V250H197V247Z" fill="#020202"/>
<path d="M210 247H207V250H210V247Z" fill="#36505B"/>
<path d="M153 250H150V253H153V250Z" fill="#36505B"/>
<path d="M170 253H163V257H170V253Z" fill="#36505B"/>
<path d="M137 253H133V257H137V253Z" fill="#020202"/>
<path fill-rule="evenodd" clip-rule="evenodd" d="M140 243H153V247V250H150V253H147V257H137V253V250V247H140V243Z" fill="#EEEEC2"/>
<path d="M150 253H147V257H150V253Z" fill="#36505B"/>
<path d="M174 253H170V267H174V253Z" fill="#A59B8F"/>
<path d="M147 257H143V260H147V257Z" fill="#36505B"/>
<path fill-rule="evenodd" clip-rule="evenodd" d="M153 247H157V253H163V257H153V260H150H147V257H150V253H153V247Z" fill="#020202"/>
<path fill-rule="evenodd" clip-rule="evenodd" d="M210 250H213V257V260H193V257H210V250Z" fill="#36505B"/>
<path d="M143 257H137V260H143V257Z" fill="#020202"/>
<path d="M147 260H143V263H147V260Z" fill="#020202"/>
<path d="M150 260H147V263H150V260Z" fill="#A59B8F"/>
<path d="M193 260H187V263H193V260Z" fill="#36505B"/>
<path d="M213 260H193V263H213V260Z" fill="#020202"/>
<path d="M217 260H213V263H217V260Z" fill="#36505B"/>
<path d="M187 263H183V267H187V263Z" fill="#36505B"/>
<path d="M193 263H187V267H193V263Z" fill="#020202"/>
<path d="M213 263H193V267H213V263Z" fill="#A59B8F"/>
<path d="M217 263H213V267H217V263Z" fill="#020202"/>
<path d="M170 267H167V270H170V267Z" fill="#36505B"/>
<path d="M174 267H170V270H174V267Z" fill="#A59B8F"/>
<path d="M183 267H180V270H183V267Z" fill="#36505B"/>
<path d="M187 267H183V270H187V267Z" fill="#020202"/>
<path d="M190 267H187V270H190V267Z" fill="#A59B8F"/>
<path d="M220 267H213V270H220V267Z" fill="#A59B8F"/>
<path d="M167 270H163V273H167V270Z" fill="#36505B"/>
<path d="M170 270H167V273H170V270Z" fill="#A59B8F"/>
<path d="M180 270H177V273H180V270Z" fill="#36505B"/>
<path d="M183 270H180V273H183V270Z" fill="#020202"/>
<path d="M187 270H183V273H187V270Z" fill="#A59B8F"/>
<path d="M220 270H217V273H220V270Z" fill="#A59B8F"/>
<path d="M163 273H160V280H163V273Z" fill="#36505B"/>
<path d="M167 273H163V280H167V273Z" fill="#A59B8F"/>
<path d="M177 273H173V277H177V273Z" fill="#36505B"/>
<path d="M180 273H177V277H180V273Z" fill="#020202"/>
<path d="M183 273H180V277H183V273Z" fill="#A59B8F"/>
<path d="M223 273H220V277H223V273Z" fill="#A59B8F"/>
<path d="M180 277H177V287H180V277Z" fill="#A59B8F"/>
<path d="M227 277H223V280H227V277Z" fill="#A59B8F"/>
<path fill-rule="evenodd" clip-rule="evenodd" d="M170 277H173V280V283H163V280H170V277Z" fill="#36505B"/>
<path d="M230 280H227V283H230V280Z" fill="#A59B8F"/>
<path d="M233 283H230V287H233V283Z" fill="#A59B8F"/>
<path fill-rule="evenodd" clip-rule="evenodd" d="M177 277H173V283H163V280H160V283V287H177V283V277Z" fill="#020202"/>
<path d="M183 287H180V290H183V287Z" fill="#A59B8F"/>
<path d="M237 287H233V290H237V287Z" fill="#A59B8F"/>
<path d="M187 290H183V293H187V290Z" fill="#A59B8F"/>
<path d="M240 290H237V293H240V290Z" fill="#A59B8F"/>
<path d="M190 293H187V297H190V293Z" fill="#A59B8F"/>
<path d="M243 293H240V297H243V293Z" fill="#A59B8F"/>
<path d="M193 297H190V310H193V297Z" fill="#A59B8F"/>
<path d="M247 297H243V300H247V297Z" fill="#A59B8F"/>
<path d="M250 300H247V303H250V300Z" fill="#A59B8F"/>
<path d="M253 303H250V317H253V303Z" fill="#A59B8F"/>
<path d="M257 307H253V317H257V307Z" fill="#36505B"/>
<path d="M200 310H197V313H200V310Z" fill="#A59B8F"/>
<path d="M210 313H203V317H210V313Z" fill="#A59B8F"/>
<path fill-rule="evenodd" clip-rule="evenodd" d="M190 267H213V270H217V273H220V277H223V280H227V283H230V287H233V290H237V293H240V297H243V300H247V303H250V310V313V317H210V313H200V310H193V303V300V297H190V293H187V290H183V287H180V283V280V277H183V273H187V270H190V267Z" fill="#EEEEC2"/>
<path d="M243 317H213V320H243V317Z" fill="#A59B8F"/>
<path d="M253 317H243V320H253V317Z" fill="#36505B"/>
<path d="M243 320H230V323H243V320Z" fill="#36505B"/>
<path fill-rule="evenodd" clip-rule="evenodd" d="M153 180H150V183V207H147V210H137V213H150V210H153V207V183V180Z" fill="#020202"/>
<path fill-rule="evenodd" clip-rule="evenodd" d="M193 187H157V190V193V197V200V203V207V227V230V233H160V237V240H163V247V250H170V253H173H174V257V260V263V267V270H170V273H167V277V280H170V277H173V273H177V270H180V267H183V263H187V260H193V257H210V253V250H207V247H203V240V237V233H200V237H170V233H167V230H163V227H160V207H163V203H167V200H170V197H201V193H197V190H193V187ZM197 250V247H200V240H197V247H183V250H197Z" fill="#EEEEC2"/>
<rect x="150" y="260" width="3" height="7" fill="#EEEEC2"/>
</svg>
