<svg width="400" height="400" viewBox="0 0 400 400" fill="none" xmlns="http://www.w3.org/2000/svg">
<path fill-rule="evenodd" clip-rule="evenodd" d="M180 287H170V290H177V293H180V290V287Z" fill="#36505B"/>
<rect x="180" y="293" width="3" height="4" fill="#36505B"/>
<rect x="183" y="297" width="4" height="10" fill="#36505B"/>
<rect x="180" y="307" width="3" height="3" fill="#36505B"/>
<rect x="177" y="310" width="3" height="4" fill="#36505B"/>
<rect x="174" y="314" width="3" height="6" fill="#36505B"/>
<path fill-rule="evenodd" clip-rule="evenodd" d="M164 340H157V347H164H180V343H164V340Z" fill="#36505B"/>
<rect x="174" y="340" width="3" height="3" fill="#A59B8F"/>
<rect x="180" y="297" width="3" height="10" fill="#A59B8F"/>
<rect x="177" y="293" width="3" height="4" fill="#A59B8F"/>
<rect x="177" y="307" width="3" height="3" fill="#A59B8F"/>
<rect x="173" y="310" width="4" height="3" fill="#A59B8F"/>
<rect x="170" y="337" width="4" height="3" fill="#A59B8F"/>
<path fill-rule="evenodd" clip-rule="evenodd" d="M177 290H170V293V307H174V293H177V290Z" fill="#A59B8F"/>
<path fill-rule="evenodd" clip-rule="evenodd" d="M174 293H177V297H180V307H177V314H174V327H170V340H174V343H164V340V330H167V314H170V307H174V293Z" fill="#EEEEC2"/>
<rect x="204" y="323" width="3" height="4" fill="#A59B8F"/>
<path d="M193 340H197V347H193V340Z" fill="#36505B"/>
<rect x="197" y="317" width="3" height="13" fill="#A59B8F"/>
<path fill-rule="evenodd" clip-rule="evenodd" d="M200 323H204V337V340H214V344H200V340V337V323Z" fill="#EEEEC2"/>
<path fill-rule="evenodd" clip-rule="evenodd" d="M203 317H200V320V323H207V320H203V317Z" fill="#36505B"/>
<rect x="170" y="327" width="4" height="10" fill="#EEEEC2"/>
<rect x="157" y="347" width="30" height="3" fill="black"/>
<rect x="204" y="327" width="3" height="13" fill="#EEEEC2"/>
<rect x="197" y="344" width="23" height="3" fill="#36505B"/>
<rect x="190" y="347" width="37" height="3" fill="black"/>
<rect x="174" y="320" width="3" height="20" fill="black"/>
<rect x="207" y="321" width="3" height="16" fill="black"/>
<rect x="193" y="317" width="4" height="13" fill="black"/>
<rect x="167" y="290" width="3" height="24" fill="black"/>
<rect x="164" y="314" width="3" height="3" fill="black"/>
<rect x="160" y="317" width="4" height="13" fill="black"/>
<rect x="157" y="330" width="3" height="10" fill="black"/>
<rect x="154" y="340" width="3" height="7" fill="black"/>
<rect x="180" y="343" width="4" height="4" fill="black"/>
<rect x="177" y="340" width="3" height="3" fill="black"/>
<rect x="177" y="314" width="3" height="6" fill="black"/>
<rect x="180" y="310" width="3" height="4" fill="black"/>
<rect x="183" y="307" width="4" height="3" fill="black"/>
<rect x="160" y="330" width="4" height="10" fill="#A59B8F"/>
<rect x="164" y="317" width="3" height="13" fill="#A59B8F"/>
<rect x="190" y="330" width="3" height="17" fill="black"/>
<rect x="193" y="330" width="4" height="10" fill="#A59B8F"/>
<rect x="197" y="340" width="3" height="4" fill="#A59B8F"/>
<rect x="197" y="330" width="3" height="10" fill="#EEEEC2"/>
<rect x="210" y="337" width="4" height="3" fill="black"/>
<rect x="207" y="337" width="3" height="3" fill="#A59B8F"/>
<rect x="220" y="344" width="4" height="3" fill="black"/>
<rect x="214" y="340" width="6" height="4" fill="black"/>
</svg>
