<svg width="400" height="400" viewBox="0 0 400 400" fill="none" xmlns="http://www.w3.org/2000/svg">
<path d="M194 124H154V127H194V124Z" fill="#4F4646"/>
<path d="M154 127H150V130H154V127Z" fill="#4F4646"/>
<path d="M157 127H154V130H157V127Z" fill="#FAFAFA"/>
<path d="M194 127H157V130H194V127Z" fill="#DDD6D6"/>
<path d="M197 127H194V130H197V127Z" fill="#4F4646"/>
<path d="M140 130H137V134H140V130Z" fill="#4F4646"/>
<path d="M150 130H147V137H150V130Z" fill="#4F4646"/>
<path d="M154 130H150V134H154V130Z" fill="#FAFAFA"/>
<path d="M157 130H154V134H157V130Z" fill="#DDD6D6"/>
<path d="M197 130H194V134H197V130Z" fill="#DDD6D6"/>
<path d="M200 130H197V134H200V130Z" fill="#4F4646"/>
<path d="M137 134H134V137H137V134Z" fill="#4F4646"/>
<path d="M140 134H137V137H140V134Z" fill="#DDD6D6"/>
<path d="M154 134H150V137H154V134Z" fill="#DDD6D6"/>
<path d="M200 134H197V137H200V134Z" fill="#DDD6D6"/>
<path d="M204 134H200V137H204V134Z" fill="#4F4646"/>
<path d="M134 137H130V147H134V137Z" fill="#4F4646"/>
<path d="M137 137H134V140H137V137Z" fill="#DDD6D6"/>
<path d="M150 137H147V140H150V137Z" fill="#DDD6D6"/>
<path d="M204 137H197V140H204V137Z" fill="black"/>
<path fill-rule="evenodd" clip-rule="evenodd" d="M137 137H147V140H144V147H134V140H137V137Z" fill="#FAFAFA"/>
<path d="M147 140H144V147H147V140Z" fill="#DDD6D6"/>
<path d="M150 140H147V143H150V140Z" fill="#4F4646"/>
<path d="M204 140H200V150H204V140Z" fill="black"/>
<path d="M197 143H194V150H197V143Z" fill="black"/>
<path fill-rule="evenodd" clip-rule="evenodd" d="M197 137H190V140H194V143H197V150H200V143V140H197V137Z" fill="#FAFAFA"/>
<path d="M144 147H137V150H144V147Z" fill="#DDD6D6"/>
<path d="M167 146H164V150H167V146Z" fill="#193680"/>
<path d="M190 146H187V150H190V146Z" fill="#193680"/>
<path d="M140 150H137V154H140V150Z" fill="#DDD6D6"/>
<path fill-rule="evenodd" clip-rule="evenodd" d="M160 143H170V146V150V153H160V150V146V143ZM164 150H167V146H164V150Z" fill="#094AED"/>
<path fill-rule="evenodd" clip-rule="evenodd" d="M184 143H194V146V150V153H184V150V146V143ZM187 150H190V146H187V150Z" fill="#094AED"/>
<path d="M197 150H194V153H197V150Z" fill="#FAFAFA"/>
<path d="M204 150H197V153H204V150Z" fill="black"/>
<path d="M140 154H137V157H140V154Z" fill="#FAFAFA"/>
<path d="M137 157H133V160H137V157Z" fill="#FAFAFA"/>
<path d="M157 156H154V160H157V156Z" fill="#4F4646"/>
<path fill-rule="evenodd" clip-rule="evenodd" d="M157 130H194V134H197V137H190V140H194V143H184V153H197V156H189V160H183V156H180V153H174V156H163V160H157V156H150V153H147V143H150V140V137H154V134H157V130ZM170 143V153H160V143H170Z" fill="black"/>
<path d="M197 156H189V160H197V156Z" fill="#4F4646"/>
<path d="M133 160H129V174H133V160Z" fill="#FAFAFA"/>
<path d="M129 174H126V210H129V174Z" fill="#FAFAFA"/>
<path d="M129 210H126V220H129V210Z" fill="#DDD6D6"/>
<path d="M133 220H129V224H133V220Z" fill="#DDD6D6"/>
<path d="M167 224H164V227H167V224Z" fill="#FAFAFA"/>
<path d="M164 227H160V230H164V227Z" fill="#FAFAFA"/>
<path d="M170 227H167V230H170V227Z" fill="#FAFAFA"/>
<path d="M160 230H157V250H160V230Z" fill="#FAFAFA"/>
<path d="M174 230H170V237H174V230Z" fill="#FAFAFA"/>
<path d="M154 234H150V237H154V234Z" fill="#DDD6D6"/>
<path d="M157 237H154V240H157V237Z" fill="#DDD6D6"/>
<path d="M170 237H167V240H170V237Z" fill="#FAFAFA"/>
<path d="M167 240H160V244H167V240Z" fill="#DDD6D6"/>
<path d="M164 250H160V254H164V250Z" fill="#FAFAFA"/>
<path d="M167 254H164V257H167V254Z" fill="#FAFAFA"/>
</svg>
