<svg width="400" height="400" viewBox="0 0 400 400" fill="none" xmlns="http://www.w3.org/2000/svg">
<path d="M133 177H127V190H133V177Z" fill="#7B68C1"/>
<path d="M207 177H201V187H207V177Z" fill="#7B68C1"/>
<path d="M150 184H137V197H150V184Z" fill="#9883E9"/>
<path fill-rule="evenodd" clip-rule="evenodd" d="M207 180H214V184V194H210V184H207V180Z" fill="#B9B9B9"/>
<path d="M137 187H133V190H137V187Z" fill="#6049B7"/>
<path d="M210 187H197V200H210V187Z" fill="#9883E9"/>
<path fill-rule="evenodd" clip-rule="evenodd" d="M127 184H120V187V190V194H137V190H124V187H127V184Z" fill="#B9B9B9"/>
<path d="M197 190H194V197H197V190Z" fill="#6049B7"/>
<path fill-rule="evenodd" clip-rule="evenodd" d="M133 194H137V197H140V200H133V197V194Z" fill="#6049B7"/>
<path d="M147 197H144V200H147V197Z" fill="#6049B7"/>
<path d="M170 197H157V210H170V197Z" fill="#9883E9"/>
<path d="M190 197H177V210H190V197Z" fill="#9883E9"/>
<path d="M197 197H194V200H197V197Z" fill="#B9B9B9"/>
<path d="M157 200H154V204H157V200Z" fill="#6049B7"/>
<path d="M177 200H174V204H177V200Z" fill="#6049B7"/>
<path d="M194 200H190V204H194V200Z" fill="#B9B9B9"/>
<path d="M207 200H194V204H207V200Z" fill="#6049B7"/>
<path fill-rule="evenodd" clip-rule="evenodd" d="M140 197H144V204H157V207H140V204V197Z" fill="#B9B9B9"/>
<path d="M177 204H170V207H177V204Z" fill="#B9B9B9"/>
<path fill-rule="evenodd" clip-rule="evenodd" d="M154 207H157V210H167V214H154V210V207Z" fill="#6049B7"/>
<path fill-rule="evenodd" clip-rule="evenodd" d="M174 207H177V210H187V214H174V210V207Z" fill="#6049B7"/>
</svg>
