<svg width="400" height="400" viewBox="0 0 400 400" fill="none" xmlns="http://www.w3.org/2000/svg">
<path d="M197 204H187V207H197V204Z" fill="black"/>
<path d="M187 207H184V210H187V207Z" fill="black"/>
<path d="M194 207H187V210H194V207Z" fill="#D9AA63"/>
<path d="M197 207H194V210H197V207Z" fill="#BD8F47"/>
<path d="M184 210H180V220H184V210Z" fill="black"/>
<path d="M187 210H184V217H187V210Z" fill="#D9AA63"/>
<path d="M190 210H187V214H190V210Z" fill="#BD8F47"/>
<path d="M194 210H190V214H194V210Z" fill="black"/>
<path d="M197 210H194V214H197V210Z" fill="#D9AA63"/>
<path d="M200 210H197V220H200V210Z" fill="#BD8F47"/>
<path d="M190 214H187V217H190V214Z" fill="black"/>
<path d="M194 214H190V217H194V214Z" fill="#BD8F47"/>
<path d="M197 214H194V217H197V214Z" fill="black"/>
<path d="M190 217H187V220H190V217Z" fill="#D9AA63"/>
<path d="M194 217H190V220H194V217Z" fill="black"/>
<path d="M197 217H194V220H197V217Z" fill="#D9AA63"/>
<path d="M180 220H177V227H180V220Z" fill="black"/>
<path d="M194 220H190V224H194V220Z" fill="#D9AA63"/>
<path d="M200 220H194V224H200V220Z" fill="black"/>
<path d="M197 224H190V227H197V224Z" fill="#694610"/>
<path d="M200 224H197V227H200V224Z" fill="black"/>
<path d="M177 227H174V234H177V227Z" fill="black"/>
<path d="M194 227H187V230H194V227Z" fill="#694610"/>
<path d="M197 227H194V230H197V227Z" fill="black"/>
<path d="M190 230H184V234H190V230Z" fill="#694610"/>
<path d="M194 230H190V234H194V230Z" fill="black"/>
<path d="M174 234H170V240H174V234Z" fill="black"/>
<path d="M187 234H180V237H187V234Z" fill="#694610"/>
<path d="M190 234H187V237H190V234Z" fill="black"/>
<path fill-rule="evenodd" clip-rule="evenodd" d="M184 217H187V220H190V227H187V230H184V234H180V237H177V240H174V237V234H177V230V227H180V220H184V217Z" fill="#BD8F47"/>
<path d="M184 237H177V240H184V237Z" fill="#694610"/>
<path d="M187 237H184V240H187V237Z" fill="black"/>
<path d="M170 240H167V247H170V240Z" fill="black"/>
<path d="M174 240H170V247H174V240Z" fill="#BD8F47"/>
<path d="M180 240H174V244H180V240Z" fill="#694610"/>
<path d="M184 240H180V244H184V240Z" fill="black"/>
<path d="M177 244H174V247H177V244Z" fill="#694610"/>
<path d="M180 244H177V247H180V244Z" fill="black"/>
<path d="M167 247H163V254H167V247Z" fill="black"/>
<path d="M170 247H167V254H170V247Z" fill="#BD8F47"/>
<path d="M174 247H170V254H174V247Z" fill="#694610"/>
<path d="M177 247H174V254H177V247Z" fill="black"/>
<path d="M167 254H163V257H167V254Z" fill="#BD8F47"/>
<path d="M170 254H167V257H170V254Z" fill="#694610"/>
<path d="M174 254H170V257H174V254Z" fill="black"/>
<path d="M153 264H150V267H153V264Z" fill="black"/>
<path d="M150 267H144V270H150V267Z" fill="black"/>
<path d="M144 270H137V273H144V270Z" fill="black"/>
<path d="M137 273H134V280H137V273Z" fill="black"/>
<path d="M157 273H154V277H157V273Z" fill="black"/>
<path d="M154 277H150V284H154V277Z" fill="black"/>
<path d="M140 280H137V284H140V280Z" fill="black"/>
<path fill-rule="evenodd" clip-rule="evenodd" d="M154 270H144V273H137V280H140V284H144V280H147V273H154V270Z" fill="#BD8F47"/>
<path d="M144 284H140V287H144V284Z" fill="black"/>
<path fill-rule="evenodd" clip-rule="evenodd" d="M147 273H154V277H150V280V284H147V287H144V284V280H147V277V273Z" fill="#694610"/>
<path d="M150 284H147V287H150V284Z" fill="black"/>
<path d="M147 287H144V290H147V287Z" fill="black"/>
</svg>
