<svg width="400" height="400" viewBox="0 0 400 400" fill="none" xmlns="http://www.w3.org/2000/svg">
<path d="M197 177H193V194H197V177Z" fill="white"/>
<path fill-rule="evenodd" clip-rule="evenodd" d="M190 180H193V184V190H187V184H190V180Z" fill="#265AA1"/>
<path fill-rule="evenodd" clip-rule="evenodd" d="M157 184H160V187H164H167H170H174H177H184V184H187V187V190V197H157V190V187V184Z" fill="white"/>
<path d="M193 190H187V194H193V190Z" fill="#4A88DE"/>
<path fill-rule="evenodd" clip-rule="evenodd" d="M154 180H150V184V194V197H153V194H157V184H154V180Z" fill="#265AA1"/>
<path d="M157 194H153V197H157V194Z" fill="#4A88DE"/>
<path d="M194 194H187V200H194V194Z" fill="#2B65B5"/>
<path d="M160 197H153V200H160V197Z" fill="#4A88DE"/>
<path d="M167 197H160V200H167V197Z" fill="#2B65B5"/>
<path d="M174 197H167V200H174V197Z" fill="#4A88DE"/>
<path d="M180 197H174V200H180V197Z" fill="#2B65B5"/>
<path d="M187 197H180V200H187V197Z" fill="#4A88DE"/>
<path d="M160 200H153V207H160V200Z" fill="#2B65B5"/>
<path d="M167 200H160V207H167V200Z" fill="#4A88DE"/>
<path d="M174 200H167V207H174V200Z" fill="#2B65B5"/>
<path d="M180 200H174V207H180V200Z" fill="#4A88DE"/>
<path d="M187 200H180V207H187V200Z" fill="#2B65B5"/>
<path d="M194 200H187V207H194V200Z" fill="#4A88DE"/>
<path fill-rule="evenodd" clip-rule="evenodd" d="M143 177H137V180V204H140V207H150V204V180H143V177Z" fill="white"/>
<path d="M160 207H153V214H160V207Z" fill="#4A88DE"/>
<path d="M167 207H160V214H167V207Z" fill="#2B65B5"/>
<path d="M174 207H167V214H174V207Z" fill="#4A88DE"/>
<path d="M180 207H174V214H180V207Z" fill="#2B65B5"/>
<path d="M187 207H180V214H187V207Z" fill="#4A88DE"/>
<path d="M194 207H187V214H194V207Z" fill="#2B65B5"/>
<path d="M160 214H153V220H160V214Z" fill="#2B65B5"/>
<path d="M167 214H160V220H167V214Z" fill="#4A88DE"/>
<path d="M174 214H167V220H174V214Z" fill="#2B65B5"/>
<path d="M180 214H174V220H180V214Z" fill="#4A88DE"/>
<path d="M187 214H180V220H187V214Z" fill="#2B65B5"/>
<path d="M194 214H187V220H194V214Z" fill="#4A88DE"/>
<path d="M160 220H153V227H160V220Z" fill="#4A88DE"/>
<path d="M167 220H160V227H167V220Z" fill="#2B65B5"/>
<path d="M174 220H167V227H174V220Z" fill="#4A88DE"/>
<path d="M180 220H174V227H180V220Z" fill="#2B65B5"/>
<path d="M187 220H180V227H187V220Z" fill="#4A88DE"/>
<path d="M160 227H153V234H160V227Z" fill="#2B65B5"/>
<path d="M167 227H160V234H167V227Z" fill="#4A88DE"/>
<path d="M170 227H167V230H170V227Z" fill="#2B65B5"/>
<path d="M174 227H170V230H174V227Z" fill="#2B65B5"/>
<path d="M174 230H167V234H174V230Z" fill="#2B65B5"/>
<path fill-rule="evenodd" clip-rule="evenodd" d="M174 227H180V230H177V234H174V230V227Z" fill="#4A88DE"/>
<path fill-rule="evenodd" clip-rule="evenodd" d="M153 234H157H160V240H157V237H153V234Z" fill="#4A88DE"/>
<path d="M167 234H160V240H167V234Z" fill="#2B65B5"/>
<path d="M174 234H167V240H174V234Z" fill="#4A88DE"/>
<path d="M180 234H174V240H180V234Z" fill="#2B65B5"/>
<path d="M184 234H180V237H184V234Z" fill="#4A88DE"/>
<path d="M187 234H184V237H187V234Z" fill="#4A88DE"/>
<path d="M210 234H207V237H210V234Z" fill="black"/>
<path d="M187 237H180V240H187V237Z" fill="#4A88DE"/>
<path d="M200 237H194V240H200V237Z" fill="#4A88DE"/>
<path d="M214 237H210V244H214V237Z" fill="black"/>
<path d="M160 240H157V244H160V240Z" fill="#2B65B5"/>
<path d="M167 240H160V247H167V240Z" fill="#4A88DE"/>
<path d="M174 240H167V247H174V240Z" fill="#2B65B5"/>
<path d="M180 240H174V247H180V240Z" fill="#4A88DE"/>
<path d="M187 240H180V247H187V240Z" fill="#2B65B5"/>
<path d="M194 240H187V247H194V240Z" fill="#4A88DE"/>
<path d="M200 240H194V247H200V240Z" fill="#2B65B5"/>
<path d="M204 240H200V244H204V240Z" fill="#4A88DE"/>
<path d="M207 240H204V244H207V240Z" fill="#4A88DE"/>
<path d="M207 244H200V247H207V244Z" fill="#4A88DE"/>
<path d="M217 244H214V247H217V244Z" fill="black"/>
<path d="M167 247H160V250H167V247Z" fill="#2B65B5"/>
<path d="M174 247H167V254H174V247Z" fill="#4A88DE"/>
<path d="M180 247H174V254H180V247Z" fill="#2B65B5"/>
<path d="M187 247H180V254H187V247Z" fill="#4A88DE"/>
<path d="M194 247H187V254H194V247Z" fill="#2B65B5"/>
<path d="M200 247H194V254H200V247Z" fill="#4A88DE"/>
<path d="M207 247H200V254H207V247Z" fill="#2B65B5"/>
<path d="M220 247H217V254H220V247Z" fill="black"/>
<path d="M214 250H207V254H214V250Z" fill="#4A88DE"/>
<path d="M180 254H174V260H180V254Z" fill="#4A88DE"/>
<path d="M187 254H180V260H187V254Z" fill="#2B65B5"/>
<path d="M194 254H187V260H194V254Z" fill="#4A88DE"/>
<path d="M200 254H194V260H200V254Z" fill="#2B65B5"/>
<path d="M207 254H200V260H207V254Z" fill="#4A88DE"/>
<path d="M214 254H207V260H214V254Z" fill="#2B65B5"/>
<path d="M224 254H220V257H224V254Z" fill="black"/>
<path d="M217 257H214V260H217V257Z" fill="#4A88DE"/>
<path d="M227 257H224V260H227V257Z" fill="black"/>
<path d="M144 260H140V274H144V260Z" fill="black"/>
<path d="M147 260H144V267H147V260Z" fill="#265AA1"/>
<path d="M150 260H147V267H150V260Z" fill="#2B65B5"/>
<path d="M180 260H174V267H180V260Z" fill="#2B65B5"/>
<path d="M187 260H180V267H187V260Z" fill="#4A88DE"/>
<path d="M194 260H187V267H194V260Z" fill="#2B65B5"/>
<path d="M200 260H194V267H200V260Z" fill="#4A88DE"/>
<path d="M207 260H200V267H207V260Z" fill="#2B65B5"/>
<path d="M214 260H207V267H214V260Z" fill="#4A88DE"/>
<path d="M220 260H214V267H220V260Z" fill="#2B65B5"/>
<path d="M230 260H227V264H230V260Z" fill="black"/>
<path d="M224 264H220V267H224V264Z" fill="#4A88DE"/>
<path d="M234 264H230V267H234V264Z" fill="black"/>
<path d="M147 267H144V273H147V267Z" fill="#2B65B5"/>
<path d="M150 267H147V274H150V267Z" fill="#4A88DE"/>
<path d="M180 267H174V274H180V267Z" fill="#4A88DE"/>
<path d="M187 267H180V274H187V267Z" fill="#2B65B5"/>
<path d="M194 267H187V274H194V267Z" fill="#4A88DE"/>
<path d="M200 267H194V274H200V267Z" fill="#2B65B5"/>
<path d="M207 267H200V274H207V267Z" fill="#4A88DE"/>
<path d="M214 267H207V274H214V267Z" fill="#2B65B5"/>
<path d="M220 267H214V274H220V267Z" fill="#4A88DE"/>
<path d="M227 267H220V274H227V267Z" fill="#2B65B5"/>
<path d="M237 267H234V270H237V267Z" fill="black"/>
<path fill-rule="evenodd" clip-rule="evenodd" d="M170 267H174V270V274H167V270H170V267Z" fill="#2B65B5"/>
<path d="M230 270H227V274H230V270Z" fill="#4A88DE"/>
<path d="M240 270H237V274H240V270Z" fill="black"/>
<path d="M140 274H137V284H140V274Z" fill="black"/>
<path d="M147 273H144V280H147V273Z" fill="#4A88DE"/>
<path d="M154 273H147V280H154V273Z" fill="#2B65B5"/>
<path fill-rule="evenodd" clip-rule="evenodd" d="M153 207H150V223H147V230H150V237V240H153V244V247H157V250V253H163V254V257H170V267H167V270H163V273H153V270V260H150V257H147V260H150V270V273H153V277H163V274H167V270H170V267H174V257V254H167V253V250H160V247V244H157V240V237H153V230V224V223V207Z" fill="#265AA1"/>
<path d="M174 274H167V280H174V274Z" fill="#4A88DE"/>
<path d="M180 274H174V280H180V274Z" fill="#2B65B5"/>
<path d="M187 274H180V280H187V274Z" fill="#4A88DE"/>
<path d="M194 274H187V280H194V274Z" fill="#2B65B5"/>
<path d="M200 274H194V280H200V274Z" fill="#4A88DE"/>
<path d="M207 274H200V280H207V274Z" fill="#2B65B5"/>
<path d="M214 274H207V280H214V274Z" fill="#4A88DE"/>
<path d="M220 274H214V280H220V274Z" fill="#2B65B5"/>
<path d="M227 274H220V280H227V274Z" fill="#4A88DE"/>
<path d="M234 274H227V280H234V274Z" fill="#2B65B5"/>
<path d="M244 274H240V277H244V274Z" fill="black"/>
<path d="M160 277H154V280H160V277Z" fill="#4A88DE"/>
<path fill-rule="evenodd" clip-rule="evenodd" d="M163 274H167V277V280H160V277H163V274Z" fill="#2B65B5"/>
<path d="M237 277H234V280H237V277Z" fill="#4A88DE"/>
<path d="M247 277H244V280H247V277Z" fill="black"/>
<path d="M154 280H147V287H154V280Z" fill="#4A88DE"/>
<path d="M160 280H154V287H160V280Z" fill="#2B65B5"/>
<path d="M167 280H160V287H167V280Z" fill="#4A88DE"/>
<path d="M174 280H167V287H174V280Z" fill="#2B65B5"/>
<path d="M180 280H174V287H180V280Z" fill="#4A88DE"/>
<path d="M187 280H180V287H187V280Z" fill="#2B65B5"/>
<path d="M194 280H187V287H194V280Z" fill="#4A88DE"/>
<path d="M200 280H194V287H200V280Z" fill="#2B65B5"/>
<path d="M207 280H200V287H207V280Z" fill="#4A88DE"/>
<path d="M214 280H207V287H214V280Z" fill="#2B65B5"/>
<path d="M220 280H214V287H220V280Z" fill="#4A88DE"/>
<path d="M227 280H220V287H227V280Z" fill="#2B65B5"/>
<path d="M234 280H227V287H234V280Z" fill="#4A88DE"/>
<path d="M250 280H247V287H250V280Z" fill="black"/>
<path d="M137 284H134V294H137V284Z" fill="black"/>
<path fill-rule="evenodd" clip-rule="evenodd" d="M144 274H140V284H137V287V294H140V287H147V284V280H144V274Z" fill="#265AA1"/>
<path d="M147 287H140V294H147V287Z" fill="#4A88DE"/>
<path d="M154 287H147V294H154V287Z" fill="#2B65B5"/>
<path d="M160 287H154V294H160V287Z" fill="#4A88DE"/>
<path d="M167 287H160V294H167V287Z" fill="#2B65B5"/>
<path d="M174 287H167V294H174V287Z" fill="#4A88DE"/>
<path d="M180 287H174V294H180V287Z" fill="#2B65B5"/>
<path d="M187 287H180V294H187V287Z" fill="#4A88DE"/>
<path d="M194 287H187V294H194V287Z" fill="#2B65B5"/>
<path d="M200 287H194V294H200V287Z" fill="#4A88DE"/>
<path d="M207 287H200V294H207V287Z" fill="#2B65B5"/>
<path d="M214 287H207V294H214V287Z" fill="#4A88DE"/>
<path d="M220 287H214V294H220V287Z" fill="#2B65B5"/>
<path d="M227 287H220V294H227V287Z" fill="#4A88DE"/>
<path fill-rule="evenodd" clip-rule="evenodd" d="M197 194H194V210V214V220H187V224V227H180V230H177V234H187V237V240H194V237H200V240H207V244V247V250H214V254V257H217V260H220V264H224V267H227V270H230V274H234V277H237V280H234V287H230H227V294H230V290H240V287H247V280H244V277H240V274H237V270H234V267H230V264H227V260H224V257H220V254H217V250V247H214V244H210V237H207V234H203V227H200V224V220V214V210H197V194Z" fill="#265AA1"/>
<path d="M247 287H240V290H247V287Z" fill="black"/>
<path d="M237 290H230V294H237V290Z" fill="black"/>
<path d="M134 294H130V304H134V294Z" fill="black"/>
<path d="M137 294H134V300H137V294Z" fill="#265AA1"/>
<path d="M140 294H137V300H140V294Z" fill="#4A88DE"/>
<path d="M147 294H140V300H147V294Z" fill="#2B65B5"/>
<path d="M154 294H147V300H154V294Z" fill="#4A88DE"/>
<path d="M160 294H154V300H160V294Z" fill="#2B65B5"/>
<path d="M167 294H160V300H167V294Z" fill="#4A88DE"/>
<path d="M174 294H167V300H174V294Z" fill="#2B65B5"/>
<path d="M180 294H174V300H180V294Z" fill="#4A88DE"/>
<path d="M187 294H180V300H187V294Z" fill="#2B65B5"/>
<path d="M194 294H187V300H194V294Z" fill="#4A88DE"/>
<path d="M200 294H194V300H200V294Z" fill="#2B65B5"/>
<path d="M207 294H200V300H207V294Z" fill="#4A88DE"/>
<path d="M214 294H207V300H214V294Z" fill="#2B65B5"/>
<path fill-rule="evenodd" clip-rule="evenodd" d="M214 294H220H224V297H220H214V294Z" fill="#265AA1"/>
<path d="M230 294H224V297H230V294Z" fill="black"/>
<path d="M224 297H214V300H224V297Z" fill="black"/>
<path d="M140 300H134V307H140V300Z" fill="#2B65B5"/>
<path d="M147 300H140V307H147V300Z" fill="#4A88DE"/>
<path d="M154 300H147V307H154V300Z" fill="#2B65B5"/>
<path d="M160 300H154V307H160V300Z" fill="#4A88DE"/>
<path d="M167 300H160V307H167V300Z" fill="#2B65B5"/>
<path d="M174 300H167V307H174V300Z" fill="#4A88DE"/>
<path d="M180 300H174V307H180V300Z" fill="#2B65B5"/>
<path d="M187 300H180V304H187V300Z" fill="#4A88DE"/>
<path fill-rule="evenodd" clip-rule="evenodd" d="M194 300H187V304H194H200H204V300H200H194Z" fill="#265AA1"/>
<path d="M214 300H204V304H214V300Z" fill="black"/>
<path d="M130 304H127V307H130V304Z" fill="black"/>
<path d="M187 304H180V307H187V304Z" fill="#265AA1"/>
<path d="M204 304H187V307H204V304Z" fill="black"/>
<path d="M127 307H124V310H127V307Z" fill="black"/>
<path d="M140 307H134V314H140V307Z" fill="#4A88DE"/>
<path d="M124 310H120V317H124V310Z" fill="black"/>
<path fill-rule="evenodd" clip-rule="evenodd" d="M134 304H130V307H127V310H124V314V317H127H134H140V314H144V310H167H170V307H167H144H140V314H134V307V304Z" fill="#265AA1"/>
<path d="M144 314H140V317H144V314Z" fill="black"/>
<path d="M140 317H124V320H140V317Z" fill="black"/>
<path d="M187 307H170V310H187V307Z" fill="black"/>
<path d="M174 310H144V314H174V310Z" fill="black"/>
</svg>
