<svg width="400" height="400" viewBox="0 0 400 400" fill="none" xmlns="http://www.w3.org/2000/svg">
<path d="M197 313H194V330H197V313Z" fill="black"/>
<path d="M210 320H207V337H210V320Z" fill="black"/>
<path fill-rule="evenodd" clip-rule="evenodd" d="M180 310H183V314H180V310ZM177 320V314H180V320H177ZM177 320V340H174V320H177ZM164 314H167V317H164V314ZM160 330H164V317H160V330ZM160 330V340H157V330H160Z" fill="black"/>
<path fill-rule="evenodd" clip-rule="evenodd" d="M164 324H174V330V340H160V330H164V324Z" fill="white"/>
<path fill-rule="evenodd" clip-rule="evenodd" d="M207 327H197V330H194V337V340H210V337H207V330V327Z" fill="white"/>
<path d="M214 337H210V340H214V337Z" fill="black"/>
<path d="M157 340H154V347H157V340Z" fill="black"/>
<path d="M180 340H177V343H180V340Z" fill="black"/>
<path d="M220 340H214V344H220V340Z" fill="black"/>
<path d="M184 343H180V347H184V343Z" fill="black"/>
<path d="M224 344H220V347H224V344Z" fill="black"/>
<path d="M160 347H157V350H160V347Z" fill="black"/>
<path fill-rule="evenodd" clip-rule="evenodd" d="M177 340H157V343V347H160V350H184V347H180V343H177V340Z" fill="#D70000"/>
<path d="M187 347H184V350H187V347Z" fill="black"/>
<path fill-rule="evenodd" clip-rule="evenodd" d="M214 340H194V344V347V350H224V347H220V344H214V340Z" fill="#D70000"/>
<path d="M227 347H224V350H227V347Z" fill="black"/>
<path d="M184 350H160V354H184V350Z" fill="black"/>
<path fill-rule="evenodd" clip-rule="evenodd" d="M190 330H194V350H224V354H190V350V330Z" fill="black"/>
<g class="b2">
    <path fill-rule="evenodd" clip-rule="evenodd" d="M170 290H180V314H177V317V320H174V324H164V320V317H167V314H170V290Z"/>
    <path fill-rule="evenodd" clip-rule="evenodd" d="M197 317H203V320H207V327H197V320V317Z"/>
    <rect x="180" y="293" width="3" height="17"/>
    <rect x="183" y="297" width="4" height="6"/>
    <rect x="170" y="283" width="3" height="7"/>
    <rect x="173" y="287" width="7" height="3"/>
    <rect x="180" y="290" width="3" height="3"/>
    <rect x="183" y="293" width="4" height="4"/>
    <rect x="187" y="297" width="3" height="6"/>
    <rect x="183" y="303" width="4" height="4"/>
</g>
<rect x="167" y="283" width="3" height="31" fill="black"/>
<rect x="183" y="307" width="4" height="3" fill="black"/>
</svg>
