<svg width="400" height="400" viewBox="0 0 400 400" fill="none" xmlns="http://www.w3.org/2000/svg">
<path d="M147 180H137V184H147V180Z" fill="black"/>
<path d="M157 184H147V187H157V184Z" fill="black"/>
<path fill-rule="evenodd" clip-rule="evenodd" d="M190 180H197V184H194V187H187V184H190V180Z" fill="black"/>
<path d="M197 184H194V187H197V184Z" fill="#5B73DD"/>
<path d="M157 187H154V190H157V187Z" fill="#5B73DD"/>
<path d="M167 187H157V190H167V187Z" fill="black"/>
<path d="M187 187H180V190H187V187Z" fill="black"/>
<path d="M194 187H187V190H194V187Z" fill="#5B73DD"/>
<path d="M197 187H194V200H197V187Z" fill="#758FFF"/>
<path fill-rule="evenodd" clip-rule="evenodd" d="M147 184H137V187V190V194H140V190H144V187H147V184Z" fill="#5B73DD"/>
<path d="M147 190H140V194H147V190Z" fill="black"/>
<path d="M167 190H157V194H167V190Z" fill="#5B73DD"/>
<path d="M140 194H137V197H140V194Z" fill="black"/>
<path d="M147 194H144V197H147V194Z" fill="#758FFF"/>
<path d="M154 194H147V197H154V194Z" fill="black"/>
<path fill-rule="evenodd" clip-rule="evenodd" d="M167 190H180V194V207H177V194H167V190Z" fill="black"/>
<path fill-rule="evenodd" clip-rule="evenodd" d="M187 190H194V194V200H184V194H187V190Z" fill="#D6A3D8"/>
<path d="M150 197H147V200H150V197Z" fill="#758FFF"/>
<path d="M157 197H154V207H157V197Z" fill="black"/>
<path d="M133 200H130V210H133V200Z" fill="black"/>
<path fill-rule="evenodd" clip-rule="evenodd" d="M160 197H164V200H167V207H157V200H160V197Z" fill="#D6A3D8"/>
<path fill-rule="evenodd" clip-rule="evenodd" d="M144 187H154V190H157V194H177V197H174V200H170V207H167V200H164V197H160V200H157V197H154V194H147V190H144V187Z" fill="#758FFF"/>
<path fill-rule="evenodd" clip-rule="evenodd" d="M174 197H177V200V207H170V200H174V197Z" fill="#D6A3D8"/>
<path d="M197 200H194V207H197V200Z" fill="#D6A3D8"/>
<path fill-rule="evenodd" clip-rule="evenodd" d="M180 190H187V194H184V200H194V204V207H190V204H180V200V194V190Z" fill="#5B73DD"/>
<path d="M144 207H137V210H144V207Z" fill="#758FFF"/>
<path fill-rule="evenodd" clip-rule="evenodd" d="M147 197H144V200H140V207H144V210H147V207H150V200H147V197Z" fill="#D6A3D8"/>
<path fill-rule="evenodd" clip-rule="evenodd" d="M150 197H154V207V210H147V207H150V197Z" fill="#5B73DD"/>
<path d="M157 207H154V210H157V207Z" fill="#758FFF"/>
<path d="M160 207H157V220H160V207Z" fill="black"/>
<path d="M167 207H164V210H167V207Z" fill="#758FFF"/>
<path d="M184 207H180V224H184V207Z" fill="black"/>
<path d="M130 210H127V217H130V210Z" fill="black"/>
<path fill-rule="evenodd" clip-rule="evenodd" d="M174 207H180V210V214H177V210H174V207Z" fill="#758FFF"/>
<path d="M200 210H197V224H200V210Z" fill="#5B73DD"/>
<path fill-rule="evenodd" clip-rule="evenodd" d="M140 194H144V197V200H140V207H137V210V214H134V217H130V214V210H133V207V200H137V197H140V194Z" fill="#5B73DD"/>
<path d="M137 214H134V217H137V214Z" fill="#758FFF"/>
<path fill-rule="evenodd" clip-rule="evenodd" d="M180 204H190V207H197V210V214V224H194V214H190V210H184V207H180V204Z" fill="#758FFF"/>
<path d="M137 217H127V220H137V217Z" fill="black"/>
<path d="M140 217H137V220H140V217Z" fill="#758FFF"/>
<path fill-rule="evenodd" clip-rule="evenodd" d="M137 210H144V217V220H140V217H137V210Z" fill="#D6A3D8"/>
<path fill-rule="evenodd" clip-rule="evenodd" d="M144 210H147V217H150V220H144V217V210Z" fill="#758FFF"/>
<path fill-rule="evenodd" clip-rule="evenodd" d="M147 210H157V217H154V220H150V217H147V210Z" fill="#D6A3D8"/>
<path d="M157 217H154V220H157V217Z" fill="#758FFF"/>
<path fill-rule="evenodd" clip-rule="evenodd" d="M167 207H170V210V214H174V217H170V220H167V217H164V214V210H167V207Z" fill="#D6A3D8"/>
<path fill-rule="evenodd" clip-rule="evenodd" d="M190 210H184V214V217V220H190V217H194V214H190V210Z" fill="#D6A3D8"/>
<path d="M157 220H137V224H157V220Z" fill="black"/>
<path fill-rule="evenodd" clip-rule="evenodd" d="M174 207H170V210V214H174V217H170V220H177V224H180V220V217V214H177V210H174V207Z" fill="#5B73DD"/>
<path fill-rule="evenodd" clip-rule="evenodd" d="M190 217H194V220V224H184V220H190V217Z" fill="#5B73DD"/>
<path d="M184 224H180V234H184V224Z" fill="#5B73DD"/>
<path d="M187 224H184V234H187V224Z" fill="black"/>
<path d="M194 224H187V227H194V224Z" fill="#758FFF"/>
<path d="M200 224H197V227H200V224Z" fill="#758FFF"/>
<path d="M190 227H187V234H190V227Z" fill="#5B73DD"/>
<path d="M203 227H200V234H203V227Z" fill="#5B73DD"/>
<path fill-rule="evenodd" clip-rule="evenodd" d="M170 224H167V227H164V234H167V237H170V234H174V227H170V224Z" fill="#D6A3D8"/>
<path fill-rule="evenodd" clip-rule="evenodd" d="M174 227H177V234V237H170V234H174V227Z" fill="#5B73DD"/>
<path d="M187 234H184V244H187V234Z" fill="#5B73DD"/>
<path d="M190 234H187V244H190V234Z" fill="black"/>
<path d="M194 234H190V237H194V234Z" fill="#758FFF"/>
<path fill-rule="evenodd" clip-rule="evenodd" d="M197 224H194V227H190V234H194V237H197V234H200V227H197V224Z" fill="#D6A3D8"/>
<path d="M203 234H197V237H203V234Z" fill="#758FFF"/>
<path d="M194 237H190V244H194V237Z" fill="#D6A3D8"/>
<path d="M197 237H194V240H197V237Z" fill="#758FFF"/>
<path d="M197 240H194V254H197V240Z" fill="#5B73DD"/>
<path fill-rule="evenodd" clip-rule="evenodd" d="M167 237H160V240H157V244H160V247H164V244H167V240V237Z" fill="#D6A3D8"/>
<path fill-rule="evenodd" clip-rule="evenodd" d="M167 237H170V244V247H164V244H167V237Z" fill="#5B73DD"/>
<path fill-rule="evenodd" clip-rule="evenodd" d="M177 237H170V240H174V244V247H177V244H180V240H177V237Z" fill="#D6A3D8"/>
<path d="M194 244H190V254H194V244Z" fill="black"/>
<path fill-rule="evenodd" clip-rule="evenodd" d="M197 237H207V244H204V247H200V244H197V237Z" fill="#D6A3D8"/>
<path fill-rule="evenodd" clip-rule="evenodd" d="M197 244H200V247H204V244H207V247V250H204V254H197V250V247V244Z" fill="#758FFF"/>
<path fill-rule="evenodd" clip-rule="evenodd" d="M190 247H184V250H180V254H184V257H190V254V250V247Z" fill="#D6A3D8"/>
<path d="M197 254H194V260H197V254Z" fill="black"/>
<path d="M200 254H197V260H200V254Z" fill="#5B73DD"/>
<path fill-rule="evenodd" clip-rule="evenodd" d="M207 247H210V253H213V257H210V254H207V247Z" fill="#5B73DD"/>
<path d="M150 257H147V260H150V257Z" fill="#5B73DD"/>
<path fill-rule="evenodd" clip-rule="evenodd" d="M207 250H204V254H200V257V260H207V257H210V254H207V250Z" fill="#D6A3D8"/>
<path d="M213 257H207V260H213V257Z" fill="black"/>
<path d="M154 260H150V267H154V260Z" fill="#5B73DD"/>
<path fill-rule="evenodd" clip-rule="evenodd" d="M164 217H167V220H177V224H180V227V234H184V240V244H190V247H184V250H180V254H184V257H187V260H177V270H174V260V257H170V254H167V250H164V247H170V240H174V247H177V244H180V240H177V234V227H170V224H167V227H164V230V234H167V237H160V240H157V237H154V234V230H157V227H160V224H164V220V217Z" fill="#758FFF"/>
<path d="M184 260H177V267H184V260Z" fill="#D6A3D8"/>
<path fill-rule="evenodd" clip-rule="evenodd" d="M194 254H190V257H187V260H184V264H190V260H194V257V254Z" fill="#5B73DD"/>
<path d="M194 260H190V264H194V260Z" fill="black"/>
<path d="M207 260H197V264H207V260Z" fill="black"/>
<path d="M190 264H184V267H190V264Z" fill="black"/>
<path d="M184 267H177V270H184V267Z" fill="black"/>
<path d="M164 270H160V274H164V270Z" fill="black"/>
<path fill-rule="evenodd" clip-rule="evenodd" d="M164 207H160V220H157V224H147V227V230H150V237V240H153V244V247H157V250V254H163V257H167V260H170V267H167V270H163V274H170V270H174V267V260V257H170V254H167V250H164V247H160V244H157V240V237H154V230H157V227H160V224H164V220V207Z" fill="#5B73DD"/>
<path d="M180 270H170V274H180V270Z" fill="black"/>
<path d="M170 274H160V277H170V274Z" fill="black"/>
</svg>
