<svg width="400" height="400" viewBox="0 0 400 400" fill="none" xmlns="http://www.w3.org/2000/svg">
<path d="M160 97H157V100H160V97Z" fill="black"/>
<path d="M177 97H167V100H177V97Z" fill="black"/>
<path d="M187 97H184V100H187V97Z" fill="black"/>
<path d="M157 100H154V107H157V100Z" fill="black"/>
<path d="M160 100H157V114H160V100Z" fill="#906626"/>
<path d="M164 100H160V114H164V100Z" fill="black"/>
<path d="M184 100H177V104H184V100Z" fill="black"/>
<path d="M187 100H184V104H187V100Z" fill="#906626"/>
<path d="M190 100H187V104H190V100Z" fill="black"/>
<path fill-rule="evenodd" clip-rule="evenodd" d="M164 100H177V104H170V107H164V104V100Z" fill="#FF3C00"/>
<path d="M184 104H180V110H184V104Z" fill="#967A00"/>
<path d="M187 104H184V110H187V104Z" fill="black"/>
<path d="M190 104H187V110H190V104Z" fill="#906626"/>
<path d="M194 104H190V110H194V104Z" fill="black"/>
<path d="M157 107H147V110H157V107Z" fill="black"/>
<path d="M147 110H140V114H147V110Z" fill="black"/>
<path d="M150 110H147V114H150V110Z" fill="#FF3C00"/>
<path d="M154 110H150V114H154V110Z" fill="#962300"/>
<path d="M157 110H154V114H157V110Z" fill="black"/>
<path d="M187 110H184V117H187V110Z" fill="#967A00"/>
<path d="M190 110H187V117H190V110Z" fill="black"/>
<path d="M194 110H190V117H194V110Z" fill="#906626"/>
<path d="M197 110H194V117H197V110Z" fill="black"/>
<path d="M140 114H137V120H140V114Z" fill="black"/>
<path d="M154 114H150V124H154V114Z" fill="black"/>
<path d="M157 114H154V124H157V114Z" fill="#906626"/>
<path d="M160 114H157V124H160V114Z" fill="black"/>
<path fill-rule="evenodd" clip-rule="evenodd" d="M170 104H180V107V110H184V114H170V117H160V114H164V110V107H170V104Z" fill="#FFD000"/>
<path fill-rule="evenodd" clip-rule="evenodd" d="M140 114H150V117H147V120H140V117V114Z" fill="#962300"/>
<path d="M150 117H147V124H150V117Z" fill="#967A00"/>
<path d="M190 117H187V124H190V117Z" fill="#506216"/>
<path d="M194 117H190V127H194V117Z" fill="black"/>
<path d="M200 117H197V124H200V117Z" fill="black"/>
<path d="M137 120H134V127H137V120Z" fill="black"/>
<path d="M140 120H137V124H140V120Z" fill="#962300"/>
<path d="M154 124H150V127H154V124Z" fill="#967A00"/>
<path d="M157 124H154V127H157V124Z" fill="black"/>
<path d="M184 124H170V127H184V124Z" fill="black"/>
<path d="M204 124H200V130H204V124Z" fill="black"/>
<path d="M134 127H130V137H134V127Z" fill="black"/>
<path fill-rule="evenodd" clip-rule="evenodd" d="M144 120H140V124H137V127H134V134H140V127H144V124V120Z" fill="#967A00"/>
<path fill-rule="evenodd" clip-rule="evenodd" d="M147 120H144V124V127H140V130H147V127H150V124H147V120Z" fill="#FFD000"/>
<path d="M170 127H160V130H170V127Z" fill="black"/>
<path d="M184 127H170V130H184V127Z" fill="black" fill-opacity="0.411765"/>
<path d="M190 127H184V130H190V127Z" fill="black"/>
<path d="M194 127H190V130H194V127Z" fill="#506216"/>
<path d="M160 130H154V134H160V130Z" fill="black"/>
<path d="M170 130H160V134H170V130Z" fill="black" fill-opacity="0.411765"/>
<path fill-rule="evenodd" clip-rule="evenodd" d="M194 127H197V130V134H190V130H194V127Z" fill="black"/>
<path d="M207 130H204V144H207V130Z" fill="black"/>
<path fill-rule="evenodd" clip-rule="evenodd" d="M184 114H170V117H160V124H157V127H147V130H140V134V137H147V134H154V130H160V127H170V124H184V127H190V124H187V117H184V114Z" fill="#88A626"/>
<path d="M154 134H147V137H154V134Z" fill="black"/>
<path d="M160 134H154V137H160V134Z" fill="black" fill-opacity="0.411765"/>
<path d="M201 134H197V137H201V134Z" fill="black"/>
<path fill-rule="evenodd" clip-rule="evenodd" d="M194 117H197V120V124H200V127V130H204V134V144H201V134H197V130V127H194V124V120V117Z" fill="#906626"/>
<path d="M130 137H127V144H130V137Z" fill="black"/>
<path d="M140 137H137V140H140V137Z" fill="#88A626"/>
<path d="M154 137H147V140H154V137Z" fill="black" fill-opacity="0.411765"/>
<path d="M197 137H194V140H197V137Z" fill="black" fill-opacity="0.411765"/>
<path fill-rule="evenodd" clip-rule="evenodd" d="M140 134H134V137H130V140V144H134V140H137V137H140V134Z" fill="#506216"/>
<path d="M147 140H144V144H147V140Z" fill="#906626"/>
<path d="M150 140H147V144H150V140Z" fill="black"/>
<path d="M134 144H130V147H134V144Z" fill="black"/>
<path d="M137 144H134V147H137V144Z" fill="#906626"/>
<path fill-rule="evenodd" clip-rule="evenodd" d="M147 137H140V140H134V144H137V147H140V144H144V140H147V137Z" fill="black"/>
<path d="M144 144H140V147H144V144Z" fill="#906626"/>
<path d="M150 144H144V147H150V144Z" fill="black"/>
<path d="M204 144H201V147H204V144Z" fill="black"/>
<path d="M130 147H127V150H130V147Z" fill="black"/>
<path d="M134 147H130V150H134V147Z" fill="#553C16"/>
<path d="M137 147H134V150H137V147Z" fill="black"/>
<path d="M140 147H137V150H140V147Z" fill="#906626"/>
<path d="M144 147H140V150H144V147Z" fill="black"/>
<path d="M147 147H144V150H147V147Z" fill="#553C16"/>
<path d="M150 147H147V150H150V147Z" fill="#906626"/>
<path d="M154 147H150V154H154V147Z" fill="black"/>
<path d="M127 150H124V160H127V150Z" fill="black"/>
<path d="M130 150H127V160H130V150Z" fill="#553C16"/>
<path d="M134 150H130V160H134V150Z" fill="black"/>
<path d="M137 150H134V160H137V150Z" fill="#906626"/>
<path d="M140 150H137V160H140V150Z" fill="black"/>
<path d="M144 150H140V160H144V150Z" fill="#906626"/>
<path d="M154 154H150V157H154V154Z" fill="#906626"/>
<path d="M157 154H154V157H157V154Z" fill="black"/>
<path d="M187 154H163V157H187V154Z" fill="black"/>
<path d="M197 154H194V157H197V154Z" fill="black"/>
<path fill-rule="evenodd" clip-rule="evenodd" d="M144 150H147V157H150V160H144V157V150Z" fill="black"/>
<path d="M157 157H154V160H157V157Z" fill="#906626"/>
<path d="M160 157H157V160H160V157Z" fill="black"/>
<path d="M194 157H187V160H194V157Z" fill="black"/>
<path d="M197 157H194V167H197V157Z" fill="#553C16"/>
<path d="M124 160H120V170H124V160Z" fill="black"/>
<path d="M127 160H124V170H127V160Z" fill="#553C16"/>
<path d="M130 160H127V170H130V160Z" fill="black"/>
<path d="M134 160H130V170H134V160Z" fill="#906626"/>
<path d="M137 160H134V170H137V160Z" fill="black"/>
<path d="M140 160H137V170H140V160Z" fill="#906626"/>
<path d="M144 160H140V170H144V160Z" fill="black"/>
<path d="M153 160H150V167H153V160Z" fill="black"/>
<path d="M157 167H153V184H157V167Z" fill="black"/>
<path d="M197 167H194V180H197V167Z" fill="black"/>
<path d="M120 170H117V184H120V170Z" fill="black"/>
<path d="M124 170H120V174H124V170Z" fill="#553C16"/>
<path d="M127 170H124V184H127V170Z" fill="black"/>
<path d="M130 170H127V184H130V170Z" fill="#906626"/>
<path d="M134 170H130V184H134V170Z" fill="black"/>
<path d="M137 170H134V184H137V170Z" fill="#906626"/>
<path d="M140 170H137V184H140V170Z" fill="black"/>
<path fill-rule="evenodd" clip-rule="evenodd" d="M170 167H184V170H180V174H174V170H170V167Z" fill="#553C16"/>
<path d="M124 174H120V177H124V174Z" fill="#88A626"/>
<path d="M124 177H120V180H124V177Z" fill="#553C16"/>
<path d="M124 180H120V184H124V180Z" fill="#88A626"/>
<path d="M117 184H114V197H117V184Z" fill="black"/>
<path d="M120 184H117V197H120V184Z" fill="#553C16"/>
<path d="M124 184H120V197H124V184Z" fill="black"/>
<path d="M127 184H124V197H127V184Z" fill="#906626"/>
<path d="M130 184H127V197H130V184Z" fill="black"/>
<path d="M140 184H137V187H140V184Z" fill="#FF3C00"/>
<path d="M143 184H140V197H143V184Z" fill="black"/>
<path d="M146 184H143V187H146V184Z" fill="black"/>
<path d="M150 184H147V187H150V184Z" fill="black" fill-opacity="0.0627451"/>
<path d="M160 184H157V197H160V184Z" fill="black"/>
<path d="M140 187H137V190H140V187Z" fill="#906626"/>
<path d="M140 190H137V194H140V190Z" fill="#FF3C00"/>
<path d="M157 190H154V194H157V190Z" fill="#849362" fill-opacity="0.203922"/>
<path d="M140 194H137V197H140V194Z" fill="#906626"/>
<path d="M197 194H194V204H197V194Z" fill="black"/>
<path d="M120 197H117V200H120V197Z" fill="black"/>
<path d="M127 197H124V200H127V197Z" fill="black"/>
<path d="M140 197H137V203H140V197Z" fill="black"/>
<path d="M160 197H157V200H160V197Z" fill="#85935E" fill-opacity="0.286275"/>
<path d="M164 197H160V204H164V197Z" fill="black"/>
<path fill-rule="evenodd" clip-rule="evenodd" d="M164 157H160V160H157V164H160V167V170V174H164V184H167V194H170V197H174V200H184V197H187V194V184H190V174V170H194V164V160H187V157H183V160H187V164H184V170H180V174H174V170H170V167H167V164H164V160V157Z" fill="#906626"/>
<path d="M167 204H164V207H167V204Z" fill="black"/>
<path d="M194 204H190V207H194V204Z" fill="black"/>
<path d="M170 207H167V210H170V207Z" fill="black"/>
<path fill-rule="evenodd" clip-rule="evenodd" d="M150 150H147V157H150V160H153V164V167H157V174V184H160V194V197H164V200V204H167V207H170V210H187V207H190V204H194V200V197V194H197V184V180H194V170H190V180V184H187V194V197H184V200H174V197H170V194H167V184H164V174H160V167V164H157V160H154V157H150V150Z" fill="#553C16"/>
<path d="M190 207H187V210H190V207Z" fill="black"/>
<path d="M194 207H190V210H194V207Z" fill="black"/>
<path d="M187 210H170V214H187V210Z" fill="black"/>
</svg>
