<svg width="400" height="400" viewBox="0 0 400 400" fill="none" xmlns="http://www.w3.org/2000/svg">
<path d="M193 127H150V134H193V127Z" fill="black"/>
<path d="M177 140H174V144H177V140Z" fill="white"/>
<path fill-rule="evenodd" clip-rule="evenodd" d="M174 137H150V140H140V144H150V150V154H174V150V140V137ZM170 150V140H154V144V150H170Z" fill="#A19696"/>
<path fill-rule="evenodd" clip-rule="evenodd" d="M177 137H197V140V150V154H177V150V140V137ZM180 150H194V140H180V150Z" fill="#A19696"/>
<path d="M174 160H170V164H174V160Z" fill="white"/>
<path d="M180 160H177V164H180V160Z" fill="white"/>
</svg>
