<svg width="400" height="400" viewBox="0 0 400 400" fill="none" xmlns="http://www.w3.org/2000/svg">
<path d="M217 194H214V197H217V194Z" fill="black"/>
<path d="M234 194H217V197H234V194Z" fill="#95C1C9"/>
<path d="M240 194H237V197H240V194Z" fill="#00FFF6"/>
<path d="M244 194H240V197H244V194Z" fill="black"/>
<path d="M234 200H224V204H234V200Z" fill="#95C1C9"/>
<path d="M247 207H201V210H247V207Z" fill="#7EA8B0"/>
<path fill-rule="evenodd" clip-rule="evenodd" d="M240 190H217V194H234V197H217V200H220V204H201V207H247V210H250V207H260V204H237V200H240V197H237V194H240V190ZM234 204H224V200H234V204Z" fill="black"/>
<path d="M264 207H260V210H264V207Z" fill="black"/>
<path d="M244 210H203V214H244V210Z" fill="#95C1C9"/>
<path d="M247 210H244V224H247V210Z" fill="black"/>
<path d="M257 210H254V214H257V210Z" fill="black"/>
<path d="M267 210H264V224H267V210Z" fill="black"/>
<path d="M217 214H203V220H217V214Z" fill="#BEDCE2"/>
<path d="M224 214H220V217H224V214Z" fill="#00FFF6"/>
<path d="M230 214H227V217H230V214Z" fill="#00FFF6"/>
<path d="M244 214H234V220H244V214Z" fill="#BEDCE2"/>
<path d="M254 214H250V220H254V214Z" fill="black"/>
<path d="M257 214H254V220H257V214Z" fill="#00FFF6"/>
<path d="M260 214H257V220H260V214Z" fill="black"/>
<path fill-rule="evenodd" clip-rule="evenodd" d="M217 214H220V217H224V214H227V217H230V214H234V217V220H217V217V214Z" fill="black"/>
<path d="M244 220H203V224H244V220Z" fill="#95C1C9"/>
<path d="M257 220H254V224H257V220Z" fill="black"/>
<path d="M214 224H203V227H214V224Z" fill="#7EA8B0"/>
<path d="M217 224H214V227H217V224Z" fill="black"/>
<path d="M247 224H217V227H247V224Z" fill="#7EA8B0"/>
<path fill-rule="evenodd" clip-rule="evenodd" d="M250 207H260V210H264V214V220V224H260V227H250V224H247V220V214V210H250V207ZM254 224H257V220H260V214H257V210H254V214H250V220H254V224Z" fill="#BEDCE2"/>
<path d="M264 224H260V227H264V224Z" fill="black"/>
<path d="M217 227H214V234H217V227Z" class="b2"/>
<path d="M210 230H207V234H210V230Z" fill="#7EA8B0"/>
<path fill-rule="evenodd" clip-rule="evenodd" d="M200 227H214V230V234H210V230H200V227Z" fill="black"/>
<path d="M217 234H214V237H217V234Z" fill="black"/>
<path fill-rule="evenodd" clip-rule="evenodd" d="M217 230H224V234H220V237H217V234V230Z" fill="#7EA8B0"/>
<path d="M264 234H260V247H264V234Z" fill="black"/>
<path fill-rule="evenodd" clip-rule="evenodd" d="M210 234H214V237H217V240H210V237V234Z" fill="#7EA8B0"/>
<path d="M220 237H217V240H220V237Z" fill="black"/>
<path fill-rule="evenodd" clip-rule="evenodd" d="M250 224H247V227H217V230H224V234H220V237H224V247H227V237V234H230V230H247V234H250V230H257V234H260V230V227H250V224Z" fill="black"/>
<path fill-rule="evenodd" clip-rule="evenodd" d="M247 230H230V234V237H234V240H240V237H244V234H247V230Z" fill="#C6DBDF"/>
<path d="M217 240H210V244H217V240Z" fill="black"/>
<path fill-rule="evenodd" clip-rule="evenodd" d="M227 234H230V237H234V240H240V237H244V240V247H227V240V237V234Z" fill="#73F373"/>
<path fill-rule="evenodd" clip-rule="evenodd" d="M250 230H257V234H260V237V240H257V244H254V240H250V237H247V234H250V230Z" fill="#C6DBDF"/>
<path fill-rule="evenodd" clip-rule="evenodd" d="M247 237H250V240H254V244H257V240H260V244V247H247V244V240V237Z" fill="#73F373"/>
<path fill-rule="evenodd" clip-rule="evenodd" d="M244 234H247V247H260V250V254H257V250H250V254H247V250H227V247H244V234Z" fill="black"/>
<path d="M247 254H240V257H247V254Z" fill="black"/>
<path d="M257 254H254V257H257V254Z" fill="black"/>
<path d="M240 257H237V260H240V257Z" fill="black"/>
<path d="M254 257H250V260H254V257Z" fill="black"/>
<path d="M237 260H234V264H237V260Z" fill="black"/>
<path d="M250 260H244V264H250V260Z" fill="black"/>
<path d="M234 264H230V267H234V264Z" fill="black"/>
<path d="M244 264H240V270H244V264Z" fill="black"/>
<path d="M230 267H227V270H230V267Z" fill="black"/>
<path d="M227 270H224V274H227V270Z" fill="black"/>
<path d="M240 270H237V274H240V270Z" fill="black"/>
<path d="M230 274H227V277H230V274Z" fill="black"/>
<path fill-rule="evenodd" clip-rule="evenodd" d="M250 250H257V254H254V257H250V260H244V264H240V267V270H237V274H234V277H230V274H227V270H230V267H234V264H237V260H240V257H247V254H250V250Z" fill="#95C1C9"/>
<path d="M237 274H234V277H237V274Z" fill="black"/>
<path d="M234 277H230V280H234V277Z" fill="black"/>
</svg>
