<svg width="400" height="400" viewBox="0 0 400 400" fill="none" xmlns="http://www.w3.org/2000/svg">
<path fill-rule="evenodd" clip-rule="evenodd" d="M214 117H217V120V123H214V127V130H210V133H207V137H200V133H197V130H193V127H200V123H207V120H214V117Z" fill="#D6FFFA"/>
<path fill-rule="evenodd" clip-rule="evenodd" d="M110 113H117V117H124V120H130V123H137V127H144V130H147V133H140V137H137V140H130V137H124V133H120V130H117V127V123H114V120H110V117V113Z" fill="#D6FFFA"/>
<path fill-rule="evenodd" clip-rule="evenodd" d="M197 133H200V137H207V140H204V143H201V140H197V137V133ZM207 137V133H210V137H207Z" fill="#AFD1CD"/>
<path fill-rule="evenodd" clip-rule="evenodd" d="M107 117H110V120H107V117ZM114 123H110V120H114V123ZM117 130H114V123H117V130ZM140 143H144V140V137H147V133H140V137H137V140H130V137H124V133H120V130H117V133V137H120V140H124V143H130V147H140V143Z" fill="#AFD1CD"/>
<path fill-rule="evenodd" clip-rule="evenodd" d="M110 110H117V113H110V110ZM107 117V113H110V117H107ZM107 120H104V117H107V120ZM110 123H107V120H110V123ZM114 130H110V123H114V130ZM117 137H114V130H117V137ZM120 140H117V137H120V140ZM124 143H120V140H124V143ZM130 147V143H124V147H130ZM140 147V150H130V147H140ZM144 143V147H140V143H144ZM147 137V143H144V137H147ZM147 130H150V137H147V130ZM137 123H147V127V130H144V127H137V123ZM130 120H137V123H130V120ZM124 117H130V120H124V117ZM124 117V113H117V117H124Z" fill="black"/>
<path fill-rule="evenodd" clip-rule="evenodd" d="M217 113H214V117H207V120H200V123H193V127H190V130H193V140H197V143H201V147H204V143H207V140H210V137H214V130H217V123H220V117H217V113ZM217 117V123H214V130H210V137H207V140H204V143H201V140H197V130H193V127H200V123H207V120H214V117H217Z" fill="black"/>
</svg>
