<svg width="400" height="400" viewBox="0 0 400 400" fill="none" xmlns="http://www.w3.org/2000/svg">
<path d="M237 154H234V157H237V154Z" fill="black"/>
<path d="M234 157H230V160H234V157Z" fill="black"/>
<path d="M240 157H237V164H240V157Z" fill="black"/>
<path d="M214 160H210V164H214V160Z" fill="black"/>
<path d="M230 160H227V164H230V160Z" fill="black"/>
<path d="M214 164H210V167H214V164Z" fill="#999999"/>
<path d="M227 164H224V167H227V164Z" fill="black"/>
<path d="M237 164H234V170H237V164Z" fill="black"/>
<path fill-rule="evenodd" clip-rule="evenodd" d="M110 164H117V167H114V170H110V167V164Z" fill="black"/>
<path d="M117 167H114V170H117V167Z" fill="#999999"/>
<path d="M120 167H117V170H120V167Z" fill="black"/>
<path d="M214 167H210V174H214V167Z" fill="#B0ADAD"/>
<path d="M234 167H230V170H234V167Z" fill="#B0ADAD"/>
<path fill-rule="evenodd" clip-rule="evenodd" d="M87 167H94V170H90V177H87V170V167Z" fill="black"/>
<path d="M94 170H90V177H94V170Z" fill="#999999"/>
<path d="M97 170H94V174H97V170Z" fill="black"/>
<path d="M117 170H114V177H117V170Z" fill="black"/>
<path d="M120 170H117V174H120V170Z" fill="#B0ADAD"/>
<path d="M124 170H120V174H124V170Z" fill="black"/>
<path fill-rule="evenodd" clip-rule="evenodd" d="M207 164H210V170V174H200V170H207V164Z" fill="black"/>
<path fill-rule="evenodd" clip-rule="evenodd" d="M237 157H234V160H230V164H227V167H224V170V174H227V170H230V167H234V164H237V160V157Z" fill="#999999"/>
<path d="M234 170H230V177H234V170Z" fill="black"/>
<path d="M97 174H94V177H97V174Z" fill="#B0ADAD"/>
<path d="M100 174H97V177H100V174Z" fill="black"/>
<path d="M120 174H117V177H120V174Z" fill="#999999"/>
<path d="M124 174H120V180H124V174Z" fill="#B0ADAD"/>
<path d="M127 174H124V180H127V174Z" fill="black"/>
<path fill-rule="evenodd" clip-rule="evenodd" d="M217 164H214V174H210V177H224V174V167H220V174H217V164Z" fill="black"/>
<path fill-rule="evenodd" clip-rule="evenodd" d="M227 170H230V174V177H224V174H227V170Z" fill="#B0ADAD"/>
<path d="M97 177H94V184H97V177Z" fill="#999999"/>
<path d="M100 177H97V180H100V177Z" fill="#B0ADAD"/>
<path d="M104 177H100V180H104V177Z" fill="black"/>
<path d="M230 177H224V180H230V177Z" fill="black"/>
<path d="M104 180H97V184H104V180Z" fill="#B0ADAD"/>
<path d="M124 180H120V184H124V180Z" fill="#999999"/>
<path d="M127 180H124V184H127V180Z" fill="#B0ADAD"/>
<path d="M144 180H127V184H144V180Z" fill="black"/>
<path fill-rule="evenodd" clip-rule="evenodd" d="M200 177H207V180H220V184H200V180V177Z" fill="#7F7F7F"/>
<path fill-rule="evenodd" clip-rule="evenodd" d="M210 174H200V177H207V180H220V184H230V180H224V177H210V174Z" fill="#686868"/>
<path d="M234 180H230V184H234V180Z" fill="black"/>
<path d="M100 184H97V190H100V184Z" fill="#999999"/>
<path d="M104 184H100V187H104V184Z" fill="#B0ADAD"/>
<path fill-rule="evenodd" clip-rule="evenodd" d="M120 177H117V184H107V180H104V184V187H127V184H120V177Z" fill="black"/>
<path d="M147 184H144V187H147V184Z" fill="black"/>
<path d="M104 187H100V190H104V187Z" fill="black"/>
<path fill-rule="evenodd" clip-rule="evenodd" d="M200 174H197V184V187V190H200V187H230V184H200V174Z" fill="black"/>
<path d="M234 187H230V207H234V187Z" fill="black"/>
<path fill-rule="evenodd" clip-rule="evenodd" d="M144 184H137V187H130V190H107V194H147V190V187H144V184Z" fill="#7F7F7F"/>
<path fill-rule="evenodd" clip-rule="evenodd" d="M147 187H160V190H150V194H147V190V187Z" fill="black"/>
<path d="M164 190H160V194H164V190Z" fill="black"/>
<path d="M197 190H194V197H197V190Z" fill="black"/>
<path d="M204 190H200V210H204V190Z" fill="black"/>
<path fill-rule="evenodd" clip-rule="evenodd" d="M127 184H137V187H130V190H107V194H104V197H97V194H100V190H104V187H127V184Z" fill="#686868"/>
<path d="M170 194H164V197H170V194Z" fill="black"/>
<path d="M174 197H170V200H174V197Z" fill="black"/>
<path d="M194 197H190V200H194V197Z" fill="black"/>
<path fill-rule="evenodd" clip-rule="evenodd" d="M90 177H94V184H97V187V190H100V194H97V197H104V194H147V197H107V200H97V204H94V200V197H90V194H94V190V187H90V184V177Z" fill="black"/>
<path d="M177 200H174V204H177V200Z" fill="black"/>
<path d="M100 204H97V210H100V204Z" fill="black"/>
<path d="M180 204H177V207H180V204Z" fill="black"/>
<path d="M190 204H187V210H190V204Z" fill="black"/>
<path d="M150 207H147V220H150V207Z" fill="black"/>
<path d="M184 207H180V210H184V207Z" fill="black"/>
<path d="M230 207H227V220H230V207Z" fill="black"/>
<path d="M104 210H100V217H104V210Z" fill="black"/>
<path d="M207 210H204V227H207V210Z" fill="black"/>
<path d="M107 217H104V224H107V217Z" fill="black"/>
<path d="M147 220H144V227H147V220Z" fill="black"/>
<path fill-rule="evenodd" clip-rule="evenodd" d="M200 190H197V197H194V200H190V207V210H187V214V220V234H190V220H194V214H197V210V207H200V200V197V190Z" fill="#202020"/>
<path d="M114 227H110V230H114V227Z" fill="black"/>
<path d="M150 227H147V234H150V227Z" fill="black"/>
<path d="M207 227H200V230H207V227Z" fill="black"/>
<path d="M117 230H114V234H117V230Z" fill="black"/>
<path fill-rule="evenodd" clip-rule="evenodd" d="M197 207H200V210H204V214V220V227H200V230H194V234H190V230V227V220H194V214H197V210V207Z" fill="#393939"/>
<path d="M200 230H194V234H200V230Z" fill="black"/>
<path d="M120 234H117V237H120V234Z" fill="black"/>
<path d="M150 234H147V237H150V234Z" fill="#202020"/>
<path d="M154 234H150V240H154V234Z" fill="black"/>
<path fill-rule="evenodd" clip-rule="evenodd" d="M150 190H160V194H164V197H170V200H174V204H177V207H180V210H184V217V230V234H177V237H170V234H164V230H160V217H157V210V207H154V204V200V197V194H150V190Z" fill="#393939"/>
<path fill-rule="evenodd" clip-rule="evenodd" d="M184 210H187V234H194V237H177V234H184V210Z" fill="black"/>
<path d="M124 237H120V240H124V237Z" fill="black"/>
<path d="M177 237H167V240H177V237Z" fill="black"/>
<path fill-rule="evenodd" clip-rule="evenodd" d="M200 187H230V190V194V197H227V194H220V197H217V200H214V204H210V210V220H214V237H217V247H210V237H207V220V210H204V204V200V197V194V190H200V187Z" fill="#202020"/>
<path fill-rule="evenodd" clip-rule="evenodd" d="M220 194H227V197H230V200V204V207H227V220H224V234H220V237V244H217V237H214V234V220H210V207V204H214V200H217V197H220V194Z" fill="#393939"/>
<path d="M127 240H124V244H127V240Z" fill="black"/>
<path d="M157 240H154V247H157V240Z" fill="black"/>
<path fill-rule="evenodd" clip-rule="evenodd" d="M154 194H147V200H144V207V214H140V220V227V230H144V234H147V230V227H150V230V234H154V237V240H157V244H160V240H167V237H170V234H164V230H160V227V220V217H157V207H154V200V194ZM147 220V227H144V220H147ZM147 220V214V207H150V217V220H147Z" fill="#202020"/>
<path d="M130 244H127V247H130V244Z" fill="black"/>
<path fill-rule="evenodd" clip-rule="evenodd" d="M224 220H227V234V237H224V244V247H217V244H220V237V234H224V220Z" fill="black"/>
<path d="M134 247H130V250H134V247Z" fill="black"/>
<path d="M160 247H157V254H160V247Z" fill="black"/>
<path d="M217 247H214V250H217V247Z" fill="black"/>
<path d="M137 250H134V254H137V250Z" fill="black"/>
<path d="M140 254H137V257H140V254Z" fill="black"/>
<path fill-rule="evenodd" clip-rule="evenodd" d="M147 197H137V200H130V204H117V214V217H120V220H124V227H127V230V234H130V237H134V240H137V244H140V247V250H144V254H147V257H154V254H157V250V247H154V244V240H150V237H147V234H144V230H140V227V220V217V214H144V204V200H147V197Z" fill="#393939"/>
<path d="M160 254H154V257H160V254Z" fill="black"/>
<path d="M144 257H140V260H144V257Z" fill="black"/>
<path fill-rule="evenodd" clip-rule="evenodd" d="M107 197H137V200H130V204H117V210V217H120V220H124V227H127V230V234H130V237H134V240H137V244H140V247V250H144V254H147V257H150V260H144V257H140V254H137V250H134V247H130V244H127V240H124V237H120V234H117V230H114V227H107V220V217H104V210H100V204H97V200H107V197Z" fill="#202020"/>
<path d="M154 257H150V260H154V257Z" fill="black"/>
<path d="M150 260H144V264H150V260Z" fill="black"/>
</svg>
